%TF.GenerationSoftware,KiCad,Pcbnew,8.0.3*%
%TF.CreationDate,2024-07-18T22:26:14+08:00*%
%TF.ProjectId,NTC,4e54432e-6b69-4636-9164-5f7063625858,rev?*%
%TF.SameCoordinates,Original*%
%TF.FileFunction,Drillmap*%
%TF.FilePolarity,Positive*%
%FSLAX45Y45*%
G04 Gerber Fmt 4.5, Leading zero omitted, Abs format (unit mm)*
G04 Created by KiCad (PCBNEW 8.0.3) date 2024-07-18 22:26:14*
%MOMM*%
%LPD*%
G01*
G04 APERTURE LIST*
%ADD10C,0.100000*%
%ADD11C,0.200000*%
G04 APERTURE END LIST*
D10*
X18450000Y-5000000D02*
X18450000Y-12900000D01*
X11550000Y-5000000D02*
X18450000Y-5000000D01*
X11550000Y-5000000D02*
X11550000Y-12900000D01*
X18450000Y-12900000D02*
X11550000Y-12900000D01*
D11*
D10*
X11735000Y-5185000D02*
X11765000Y-5215000D01*
X11765000Y-5185000D02*
X11735000Y-5215000D01*
X11735000Y-5335000D02*
X11765000Y-5365000D01*
X11765000Y-5335000D02*
X11735000Y-5365000D01*
X11735000Y-5485000D02*
X11765000Y-5515000D01*
X11765000Y-5485000D02*
X11735000Y-5515000D01*
X11735000Y-12535000D02*
X11765000Y-12565000D01*
X11765000Y-12535000D02*
X11735000Y-12565000D01*
X11735000Y-12685000D02*
X11765000Y-12715000D01*
X11765000Y-12685000D02*
X11735000Y-12715000D01*
X11885000Y-5185000D02*
X11915000Y-5215000D01*
X11915000Y-5185000D02*
X11885000Y-5215000D01*
X11885000Y-5335000D02*
X11915000Y-5365000D01*
X11915000Y-5335000D02*
X11885000Y-5365000D01*
X11885000Y-5485000D02*
X11915000Y-5515000D01*
X11915000Y-5485000D02*
X11885000Y-5515000D01*
X11885000Y-12535000D02*
X11915000Y-12565000D01*
X11915000Y-12535000D02*
X11885000Y-12565000D01*
X11885000Y-12685000D02*
X11915000Y-12715000D01*
X11915000Y-12685000D02*
X11885000Y-12715000D01*
X12035000Y-12535000D02*
X12065000Y-12565000D01*
X12065000Y-12535000D02*
X12035000Y-12565000D01*
X12035000Y-12685000D02*
X12065000Y-12715000D01*
X12065000Y-12685000D02*
X12035000Y-12715000D01*
X13085000Y-10285000D02*
X13115000Y-10315000D01*
X13115000Y-10285000D02*
X13085000Y-10315000D01*
X13335000Y-11385000D02*
X13365000Y-11415000D01*
X13365000Y-11385000D02*
X13335000Y-11415000D01*
X13485000Y-8535000D02*
X13515000Y-8565000D01*
X13515000Y-8535000D02*
X13485000Y-8565000D01*
X13535000Y-11235000D02*
X13565000Y-11265000D01*
X13565000Y-11235000D02*
X13535000Y-11265000D01*
X13635000Y-7635000D02*
X13665000Y-7665000D01*
X13665000Y-7635000D02*
X13635000Y-7665000D01*
X13635000Y-10485000D02*
X13665000Y-10515000D01*
X13665000Y-10485000D02*
X13635000Y-10515000D01*
X13785000Y-8535000D02*
X13815000Y-8565000D01*
X13815000Y-8535000D02*
X13785000Y-8565000D01*
X13835000Y-11585000D02*
X13865000Y-11615000D01*
X13865000Y-11585000D02*
X13835000Y-11615000D01*
X13885000Y-12535000D02*
X13915000Y-12565000D01*
X13915000Y-12535000D02*
X13885000Y-12565000D01*
X13935000Y-9585000D02*
X13965000Y-9615000D01*
X13965000Y-9585000D02*
X13935000Y-9615000D01*
X13935000Y-10385000D02*
X13965000Y-10415000D01*
X13965000Y-10385000D02*
X13935000Y-10415000D01*
X14035000Y-8535000D02*
X14065000Y-8565000D01*
X14065000Y-8535000D02*
X14035000Y-8565000D01*
X14085000Y-11485000D02*
X14115000Y-11515000D01*
X14115000Y-11485000D02*
X14085000Y-11515000D01*
X14085000Y-12085000D02*
X14115000Y-12115000D01*
X14115000Y-12085000D02*
X14085000Y-12115000D01*
X14135000Y-7485000D02*
X14165000Y-7515000D01*
X14165000Y-7485000D02*
X14135000Y-7515000D01*
X14185000Y-11135000D02*
X14215000Y-11165000D01*
X14215000Y-11135000D02*
X14185000Y-11165000D01*
X14285000Y-8535000D02*
X14315000Y-8565000D01*
X14315000Y-8535000D02*
X14285000Y-8565000D01*
X14360000Y-10360000D02*
X14390000Y-10390000D01*
X14390000Y-10360000D02*
X14360000Y-10390000D01*
X14385000Y-9585000D02*
X14415000Y-9615000D01*
X14415000Y-9585000D02*
X14385000Y-9615000D01*
X14385000Y-11735000D02*
X14415000Y-11765000D01*
X14415000Y-11735000D02*
X14385000Y-11765000D01*
X14435000Y-10885000D02*
X14465000Y-10915000D01*
X14465000Y-10885000D02*
X14435000Y-10915000D01*
X14525000Y-10985000D02*
X14555000Y-11015000D01*
X14555000Y-10985000D02*
X14525000Y-11015000D01*
X14535000Y-8535000D02*
X14565000Y-8565000D01*
X14565000Y-8535000D02*
X14535000Y-8565000D01*
X14535000Y-12385000D02*
X14565000Y-12415000D01*
X14565000Y-12385000D02*
X14535000Y-12415000D01*
X14735000Y-8535000D02*
X14765000Y-8565000D01*
X14765000Y-8535000D02*
X14735000Y-8565000D01*
X14835000Y-10385000D02*
X14865000Y-10415000D01*
X14865000Y-10385000D02*
X14835000Y-10415000D01*
X14835000Y-10535000D02*
X14865000Y-10565000D01*
X14865000Y-10535000D02*
X14835000Y-10565000D01*
X14835000Y-10685000D02*
X14865000Y-10715000D01*
X14865000Y-10685000D02*
X14835000Y-10715000D01*
X14885000Y-8735000D02*
X14915000Y-8765000D01*
X14915000Y-8735000D02*
X14885000Y-8765000D01*
X14885000Y-9035000D02*
X14915000Y-9065000D01*
X14915000Y-9035000D02*
X14885000Y-9065000D01*
X14885000Y-11635000D02*
X14915000Y-11665000D01*
X14915000Y-11635000D02*
X14885000Y-11665000D01*
X14885000Y-12035000D02*
X14915000Y-12065000D01*
X14915000Y-12035000D02*
X14885000Y-12065000D01*
X14885000Y-12385000D02*
X14915000Y-12415000D01*
X14915000Y-12385000D02*
X14885000Y-12415000D01*
X15135000Y-8235000D02*
X15165000Y-8265000D01*
X15165000Y-8235000D02*
X15135000Y-8265000D01*
X15135000Y-10685000D02*
X15165000Y-10715000D01*
X15165000Y-10685000D02*
X15135000Y-10715000D01*
X15235000Y-8735000D02*
X15265000Y-8765000D01*
X15265000Y-8735000D02*
X15235000Y-8765000D01*
X15235000Y-9035000D02*
X15265000Y-9065000D01*
X15265000Y-9035000D02*
X15235000Y-9065000D01*
X15235000Y-10335000D02*
X15265000Y-10365000D01*
X15265000Y-10335000D02*
X15235000Y-10365000D01*
X15235000Y-10535000D02*
X15265000Y-10565000D01*
X15265000Y-10535000D02*
X15235000Y-10565000D01*
X15285000Y-12385000D02*
X15315000Y-12415000D01*
X15315000Y-12385000D02*
X15285000Y-12415000D01*
X15535000Y-8235000D02*
X15565000Y-8265000D01*
X15565000Y-8235000D02*
X15535000Y-8265000D01*
X15535000Y-9585000D02*
X15565000Y-9615000D01*
X15565000Y-9585000D02*
X15535000Y-9615000D01*
X15585000Y-11385000D02*
X15615000Y-11415000D01*
X15615000Y-11385000D02*
X15585000Y-11415000D01*
X15585000Y-11835000D02*
X15615000Y-11865000D01*
X15615000Y-11835000D02*
X15585000Y-11865000D01*
X15685000Y-8735000D02*
X15715000Y-8765000D01*
X15715000Y-8735000D02*
X15685000Y-8765000D01*
X15885000Y-6431750D02*
X15915000Y-6461750D01*
X15915000Y-6431750D02*
X15885000Y-6461750D01*
X15985000Y-8235000D02*
X16015000Y-8265000D01*
X16015000Y-8235000D02*
X15985000Y-8265000D01*
X15985000Y-9135000D02*
X16015000Y-9165000D01*
X16015000Y-9135000D02*
X15985000Y-9165000D01*
X15985000Y-9585000D02*
X16015000Y-9615000D01*
X16015000Y-9585000D02*
X15985000Y-9615000D01*
X16235000Y-12435000D02*
X16265000Y-12465000D01*
X16265000Y-12435000D02*
X16235000Y-12465000D01*
X16285000Y-7485000D02*
X16315000Y-7515000D01*
X16315000Y-7485000D02*
X16285000Y-7515000D01*
X16435000Y-8235000D02*
X16465000Y-8265000D01*
X16465000Y-8235000D02*
X16435000Y-8265000D01*
X16585000Y-12735000D02*
X16615000Y-12765000D01*
X16615000Y-12735000D02*
X16585000Y-12765000D01*
X16685000Y-7635000D02*
X16715000Y-7665000D01*
X16715000Y-7635000D02*
X16685000Y-7665000D01*
X16685000Y-8185000D02*
X16715000Y-8215000D01*
X16715000Y-8185000D02*
X16685000Y-8215000D01*
X16785000Y-12035000D02*
X16815000Y-12065000D01*
X16815000Y-12035000D02*
X16785000Y-12065000D01*
X16935000Y-11035000D02*
X16965000Y-11065000D01*
X16965000Y-11035000D02*
X16935000Y-11065000D01*
X16935000Y-11585000D02*
X16965000Y-11615000D01*
X16965000Y-11585000D02*
X16935000Y-11615000D01*
X16935000Y-12435000D02*
X16965000Y-12465000D01*
X16965000Y-12435000D02*
X16935000Y-12465000D01*
X17285000Y-12435000D02*
X17315000Y-12465000D01*
X17315000Y-12435000D02*
X17285000Y-12465000D01*
X17485000Y-11285000D02*
X17515000Y-11315000D01*
X17515000Y-11285000D02*
X17485000Y-11315000D01*
X17485000Y-11435000D02*
X17515000Y-11465000D01*
X17515000Y-11435000D02*
X17485000Y-11465000D01*
X17885000Y-12485000D02*
X17915000Y-12515000D01*
X17915000Y-12485000D02*
X17885000Y-12515000D01*
X17885000Y-12635000D02*
X17915000Y-12665000D01*
X17915000Y-12635000D02*
X17885000Y-12665000D01*
X17985000Y-9835000D02*
X18015000Y-9865000D01*
X18015000Y-9835000D02*
X17985000Y-9865000D01*
X17985000Y-10035000D02*
X18015000Y-10065000D01*
X18015000Y-10035000D02*
X17985000Y-10065000D01*
X17985000Y-10235000D02*
X18015000Y-10265000D01*
X18015000Y-10235000D02*
X17985000Y-10265000D01*
X18035000Y-12485000D02*
X18065000Y-12515000D01*
X18065000Y-12485000D02*
X18035000Y-12515000D01*
X18035000Y-12635000D02*
X18065000Y-12665000D01*
X18065000Y-12635000D02*
X18035000Y-12665000D01*
X18085000Y-5185000D02*
X18115000Y-5215000D01*
X18115000Y-5185000D02*
X18085000Y-5215000D01*
X18085000Y-5335000D02*
X18115000Y-5365000D01*
X18115000Y-5335000D02*
X18085000Y-5365000D01*
X18085000Y-5485000D02*
X18115000Y-5515000D01*
X18115000Y-5485000D02*
X18085000Y-5515000D01*
X18185000Y-9835000D02*
X18215000Y-9865000D01*
X18215000Y-9835000D02*
X18185000Y-9865000D01*
X18185000Y-10035000D02*
X18215000Y-10065000D01*
X18215000Y-10035000D02*
X18185000Y-10065000D01*
X18185000Y-10235000D02*
X18215000Y-10265000D01*
X18215000Y-10235000D02*
X18185000Y-10265000D01*
X18185000Y-12485000D02*
X18215000Y-12515000D01*
X18215000Y-12485000D02*
X18185000Y-12515000D01*
X18185000Y-12635000D02*
X18215000Y-12665000D01*
X18215000Y-12635000D02*
X18185000Y-12665000D01*
X18235000Y-5185000D02*
X18265000Y-5215000D01*
X18265000Y-5185000D02*
X18235000Y-5215000D01*
X18235000Y-5335000D02*
X18265000Y-5365000D01*
X18265000Y-5335000D02*
X18235000Y-5365000D01*
X18235000Y-5485000D02*
X18265000Y-5515000D01*
X18265000Y-5485000D02*
X18235000Y-5515000D01*
X17819500Y-10918000D02*
G75*
G02*
X17759500Y-10918000I-30000J0D01*
G01*
X17759500Y-10918000D02*
G75*
G02*
X17819500Y-10918000I30000J0D01*
G01*
X17734500Y-10948000D02*
X17844500Y-10948000D01*
X17844500Y-10888000D02*
G75*
G02*
X17844500Y-10948000I0J-30000D01*
G01*
X17844500Y-10888000D02*
X17734500Y-10888000D01*
X17734500Y-10888000D02*
G75*
G03*
X17734500Y-10948000I0J-30000D01*
G01*
X17819500Y-11782000D02*
G75*
G02*
X17759500Y-11782000I-30000J0D01*
G01*
X17759500Y-11782000D02*
G75*
G02*
X17819500Y-11782000I30000J0D01*
G01*
X17734500Y-11812000D02*
X17844500Y-11812000D01*
X17844500Y-11752000D02*
G75*
G02*
X17844500Y-11812000I0J-30000D01*
G01*
X17844500Y-11752000D02*
X17734500Y-11752000D01*
X17734500Y-11752000D02*
G75*
G03*
X17734500Y-11812000I0J-30000D01*
G01*
X18237500Y-10918000D02*
G75*
G02*
X18177500Y-10918000I-30000J0D01*
G01*
X18177500Y-10918000D02*
G75*
G02*
X18237500Y-10918000I30000J0D01*
G01*
X18177500Y-10948000D02*
X18237500Y-10948000D01*
X18237500Y-10888000D02*
G75*
G02*
X18237500Y-10948000I0J-30000D01*
G01*
X18237500Y-10888000D02*
X18177500Y-10888000D01*
X18177500Y-10888000D02*
G75*
G03*
X18177500Y-10948000I0J-30000D01*
G01*
X18237500Y-11782000D02*
G75*
G02*
X18177500Y-11782000I-30000J0D01*
G01*
X18177500Y-11782000D02*
G75*
G02*
X18237500Y-11782000I30000J0D01*
G01*
X18177500Y-11812000D02*
X18237500Y-11812000D01*
X18237500Y-11752000D02*
G75*
G02*
X18237500Y-11812000I0J-30000D01*
G01*
X18237500Y-11752000D02*
X18177500Y-11752000D01*
X18177500Y-11752000D02*
G75*
G03*
X18177500Y-11812000I0J-30000D01*
G01*
X13150000Y-11850000D02*
X13150000Y-11950000D01*
X13100000Y-11900000D02*
X13200000Y-11900000D01*
X13400000Y-11850000D02*
X13400000Y-11950000D01*
X13350000Y-11900000D02*
X13450000Y-11900000D01*
X14365000Y-5623750D02*
X14365000Y-5723750D01*
X14315000Y-5673750D02*
X14415000Y-5673750D01*
X14365000Y-7147750D02*
X14365000Y-7247750D01*
X14315000Y-7197750D02*
X14415000Y-7197750D01*
X14619000Y-5623750D02*
X14619000Y-5723750D01*
X14569000Y-5673750D02*
X14669000Y-5673750D01*
X14619000Y-7147750D02*
X14619000Y-7247750D01*
X14569000Y-7197750D02*
X14669000Y-7197750D01*
X14873000Y-5623750D02*
X14873000Y-5723750D01*
X14823000Y-5673750D02*
X14923000Y-5673750D01*
X14873000Y-7147750D02*
X14873000Y-7247750D01*
X14823000Y-7197750D02*
X14923000Y-7197750D01*
X15127000Y-5623750D02*
X15127000Y-5723750D01*
X15077000Y-5673750D02*
X15177000Y-5673750D01*
X15127000Y-7147750D02*
X15127000Y-7247750D01*
X15077000Y-7197750D02*
X15177000Y-7197750D01*
X15381000Y-5623750D02*
X15381000Y-5723750D01*
X15331000Y-5673750D02*
X15431000Y-5673750D01*
X15381000Y-7147750D02*
X15381000Y-7247750D01*
X15331000Y-7197750D02*
X15431000Y-7197750D01*
X15635000Y-5623750D02*
X15635000Y-5723750D01*
X15585000Y-5673750D02*
X15685000Y-5673750D01*
X15635000Y-7147750D02*
X15635000Y-7247750D01*
X15585000Y-7197750D02*
X15685000Y-7197750D01*
X17200000Y-9668000D02*
X17200000Y-9768000D01*
X17150000Y-9718000D02*
X17250000Y-9718000D01*
X17200000Y-9922000D02*
X17200000Y-10022000D01*
X17150000Y-9972000D02*
X17250000Y-9972000D01*
X17200000Y-10176000D02*
X17200000Y-10276000D01*
X17150000Y-10226000D02*
X17250000Y-10226000D01*
X17200000Y-10430000D02*
X17200000Y-10530000D01*
X17150000Y-10480000D02*
X17250000Y-10480000D01*
D11*
X11805777Y-13216484D02*
X11805777Y-13016484D01*
X11805777Y-13016484D02*
X11853396Y-13016484D01*
X11853396Y-13016484D02*
X11881967Y-13026008D01*
X11881967Y-13026008D02*
X11901015Y-13045055D01*
X11901015Y-13045055D02*
X11910539Y-13064103D01*
X11910539Y-13064103D02*
X11920062Y-13102198D01*
X11920062Y-13102198D02*
X11920062Y-13130769D01*
X11920062Y-13130769D02*
X11910539Y-13168865D01*
X11910539Y-13168865D02*
X11901015Y-13187912D01*
X11901015Y-13187912D02*
X11881967Y-13206960D01*
X11881967Y-13206960D02*
X11853396Y-13216484D01*
X11853396Y-13216484D02*
X11805777Y-13216484D01*
X12005777Y-13216484D02*
X12005777Y-13083150D01*
X12005777Y-13121246D02*
X12015301Y-13102198D01*
X12015301Y-13102198D02*
X12024824Y-13092674D01*
X12024824Y-13092674D02*
X12043872Y-13083150D01*
X12043872Y-13083150D02*
X12062920Y-13083150D01*
X12129586Y-13216484D02*
X12129586Y-13083150D01*
X12129586Y-13016484D02*
X12120062Y-13026008D01*
X12120062Y-13026008D02*
X12129586Y-13035531D01*
X12129586Y-13035531D02*
X12139110Y-13026008D01*
X12139110Y-13026008D02*
X12129586Y-13016484D01*
X12129586Y-13016484D02*
X12129586Y-13035531D01*
X12253396Y-13216484D02*
X12234348Y-13206960D01*
X12234348Y-13206960D02*
X12224824Y-13187912D01*
X12224824Y-13187912D02*
X12224824Y-13016484D01*
X12358158Y-13216484D02*
X12339110Y-13206960D01*
X12339110Y-13206960D02*
X12329586Y-13187912D01*
X12329586Y-13187912D02*
X12329586Y-13016484D01*
X12586729Y-13216484D02*
X12586729Y-13016484D01*
X12586729Y-13016484D02*
X12653396Y-13159341D01*
X12653396Y-13159341D02*
X12720062Y-13016484D01*
X12720062Y-13016484D02*
X12720062Y-13216484D01*
X12901015Y-13216484D02*
X12901015Y-13111722D01*
X12901015Y-13111722D02*
X12891491Y-13092674D01*
X12891491Y-13092674D02*
X12872443Y-13083150D01*
X12872443Y-13083150D02*
X12834348Y-13083150D01*
X12834348Y-13083150D02*
X12815301Y-13092674D01*
X12901015Y-13206960D02*
X12881967Y-13216484D01*
X12881967Y-13216484D02*
X12834348Y-13216484D01*
X12834348Y-13216484D02*
X12815301Y-13206960D01*
X12815301Y-13206960D02*
X12805777Y-13187912D01*
X12805777Y-13187912D02*
X12805777Y-13168865D01*
X12805777Y-13168865D02*
X12815301Y-13149817D01*
X12815301Y-13149817D02*
X12834348Y-13140293D01*
X12834348Y-13140293D02*
X12881967Y-13140293D01*
X12881967Y-13140293D02*
X12901015Y-13130769D01*
X12996253Y-13083150D02*
X12996253Y-13283150D01*
X12996253Y-13092674D02*
X13015301Y-13083150D01*
X13015301Y-13083150D02*
X13053396Y-13083150D01*
X13053396Y-13083150D02*
X13072443Y-13092674D01*
X13072443Y-13092674D02*
X13081967Y-13102198D01*
X13081967Y-13102198D02*
X13091491Y-13121246D01*
X13091491Y-13121246D02*
X13091491Y-13178388D01*
X13091491Y-13178388D02*
X13081967Y-13197436D01*
X13081967Y-13197436D02*
X13072443Y-13206960D01*
X13072443Y-13206960D02*
X13053396Y-13216484D01*
X13053396Y-13216484D02*
X13015301Y-13216484D01*
X13015301Y-13216484D02*
X12996253Y-13206960D01*
X13177205Y-13197436D02*
X13186729Y-13206960D01*
X13186729Y-13206960D02*
X13177205Y-13216484D01*
X13177205Y-13216484D02*
X13167682Y-13206960D01*
X13167682Y-13206960D02*
X13177205Y-13197436D01*
X13177205Y-13197436D02*
X13177205Y-13216484D01*
X13177205Y-13092674D02*
X13186729Y-13102198D01*
X13186729Y-13102198D02*
X13177205Y-13111722D01*
X13177205Y-13111722D02*
X13167682Y-13102198D01*
X13167682Y-13102198D02*
X13177205Y-13092674D01*
X13177205Y-13092674D02*
X13177205Y-13111722D01*
D10*
X11515000Y-13530000D02*
X11545000Y-13560000D01*
X11545000Y-13530000D02*
X11515000Y-13560000D01*
D11*
X11843872Y-13436484D02*
X11862920Y-13436484D01*
X11862920Y-13436484D02*
X11881967Y-13446008D01*
X11881967Y-13446008D02*
X11891491Y-13455531D01*
X11891491Y-13455531D02*
X11901015Y-13474579D01*
X11901015Y-13474579D02*
X11910539Y-13512674D01*
X11910539Y-13512674D02*
X11910539Y-13560293D01*
X11910539Y-13560293D02*
X11901015Y-13598388D01*
X11901015Y-13598388D02*
X11891491Y-13617436D01*
X11891491Y-13617436D02*
X11881967Y-13626960D01*
X11881967Y-13626960D02*
X11862920Y-13636484D01*
X11862920Y-13636484D02*
X11843872Y-13636484D01*
X11843872Y-13636484D02*
X11824824Y-13626960D01*
X11824824Y-13626960D02*
X11815301Y-13617436D01*
X11815301Y-13617436D02*
X11805777Y-13598388D01*
X11805777Y-13598388D02*
X11796253Y-13560293D01*
X11796253Y-13560293D02*
X11796253Y-13512674D01*
X11796253Y-13512674D02*
X11805777Y-13474579D01*
X11805777Y-13474579D02*
X11815301Y-13455531D01*
X11815301Y-13455531D02*
X11824824Y-13446008D01*
X11824824Y-13446008D02*
X11843872Y-13436484D01*
X11996253Y-13617436D02*
X12005777Y-13626960D01*
X12005777Y-13626960D02*
X11996253Y-13636484D01*
X11996253Y-13636484D02*
X11986729Y-13626960D01*
X11986729Y-13626960D02*
X11996253Y-13617436D01*
X11996253Y-13617436D02*
X11996253Y-13636484D01*
X12072443Y-13436484D02*
X12196253Y-13436484D01*
X12196253Y-13436484D02*
X12129586Y-13512674D01*
X12129586Y-13512674D02*
X12158158Y-13512674D01*
X12158158Y-13512674D02*
X12177205Y-13522198D01*
X12177205Y-13522198D02*
X12186729Y-13531722D01*
X12186729Y-13531722D02*
X12196253Y-13550769D01*
X12196253Y-13550769D02*
X12196253Y-13598388D01*
X12196253Y-13598388D02*
X12186729Y-13617436D01*
X12186729Y-13617436D02*
X12177205Y-13626960D01*
X12177205Y-13626960D02*
X12158158Y-13636484D01*
X12158158Y-13636484D02*
X12101015Y-13636484D01*
X12101015Y-13636484D02*
X12081967Y-13626960D01*
X12081967Y-13626960D02*
X12072443Y-13617436D01*
X12320062Y-13436484D02*
X12339110Y-13436484D01*
X12339110Y-13436484D02*
X12358158Y-13446008D01*
X12358158Y-13446008D02*
X12367682Y-13455531D01*
X12367682Y-13455531D02*
X12377205Y-13474579D01*
X12377205Y-13474579D02*
X12386729Y-13512674D01*
X12386729Y-13512674D02*
X12386729Y-13560293D01*
X12386729Y-13560293D02*
X12377205Y-13598388D01*
X12377205Y-13598388D02*
X12367682Y-13617436D01*
X12367682Y-13617436D02*
X12358158Y-13626960D01*
X12358158Y-13626960D02*
X12339110Y-13636484D01*
X12339110Y-13636484D02*
X12320062Y-13636484D01*
X12320062Y-13636484D02*
X12301015Y-13626960D01*
X12301015Y-13626960D02*
X12291491Y-13617436D01*
X12291491Y-13617436D02*
X12281967Y-13598388D01*
X12281967Y-13598388D02*
X12272443Y-13560293D01*
X12272443Y-13560293D02*
X12272443Y-13512674D01*
X12272443Y-13512674D02*
X12281967Y-13474579D01*
X12281967Y-13474579D02*
X12291491Y-13455531D01*
X12291491Y-13455531D02*
X12301015Y-13446008D01*
X12301015Y-13446008D02*
X12320062Y-13436484D01*
X12510539Y-13436484D02*
X12529586Y-13436484D01*
X12529586Y-13436484D02*
X12548634Y-13446008D01*
X12548634Y-13446008D02*
X12558158Y-13455531D01*
X12558158Y-13455531D02*
X12567682Y-13474579D01*
X12567682Y-13474579D02*
X12577205Y-13512674D01*
X12577205Y-13512674D02*
X12577205Y-13560293D01*
X12577205Y-13560293D02*
X12567682Y-13598388D01*
X12567682Y-13598388D02*
X12558158Y-13617436D01*
X12558158Y-13617436D02*
X12548634Y-13626960D01*
X12548634Y-13626960D02*
X12529586Y-13636484D01*
X12529586Y-13636484D02*
X12510539Y-13636484D01*
X12510539Y-13636484D02*
X12491491Y-13626960D01*
X12491491Y-13626960D02*
X12481967Y-13617436D01*
X12481967Y-13617436D02*
X12472443Y-13598388D01*
X12472443Y-13598388D02*
X12462920Y-13560293D01*
X12462920Y-13560293D02*
X12462920Y-13512674D01*
X12462920Y-13512674D02*
X12472443Y-13474579D01*
X12472443Y-13474579D02*
X12481967Y-13455531D01*
X12481967Y-13455531D02*
X12491491Y-13446008D01*
X12491491Y-13446008D02*
X12510539Y-13436484D01*
X12662920Y-13636484D02*
X12662920Y-13503150D01*
X12662920Y-13522198D02*
X12672443Y-13512674D01*
X12672443Y-13512674D02*
X12691491Y-13503150D01*
X12691491Y-13503150D02*
X12720063Y-13503150D01*
X12720063Y-13503150D02*
X12739110Y-13512674D01*
X12739110Y-13512674D02*
X12748634Y-13531722D01*
X12748634Y-13531722D02*
X12748634Y-13636484D01*
X12748634Y-13531722D02*
X12758158Y-13512674D01*
X12758158Y-13512674D02*
X12777205Y-13503150D01*
X12777205Y-13503150D02*
X12805777Y-13503150D01*
X12805777Y-13503150D02*
X12824824Y-13512674D01*
X12824824Y-13512674D02*
X12834348Y-13531722D01*
X12834348Y-13531722D02*
X12834348Y-13636484D01*
X12929586Y-13636484D02*
X12929586Y-13503150D01*
X12929586Y-13522198D02*
X12939110Y-13512674D01*
X12939110Y-13512674D02*
X12958158Y-13503150D01*
X12958158Y-13503150D02*
X12986729Y-13503150D01*
X12986729Y-13503150D02*
X13005777Y-13512674D01*
X13005777Y-13512674D02*
X13015301Y-13531722D01*
X13015301Y-13531722D02*
X13015301Y-13636484D01*
X13015301Y-13531722D02*
X13024824Y-13512674D01*
X13024824Y-13512674D02*
X13043872Y-13503150D01*
X13043872Y-13503150D02*
X13072443Y-13503150D01*
X13072443Y-13503150D02*
X13091491Y-13512674D01*
X13091491Y-13512674D02*
X13101015Y-13531722D01*
X13101015Y-13531722D02*
X13101015Y-13636484D01*
X13491491Y-13426960D02*
X13320063Y-13684103D01*
X13748634Y-13436484D02*
X13767682Y-13436484D01*
X13767682Y-13436484D02*
X13786729Y-13446008D01*
X13786729Y-13446008D02*
X13796253Y-13455531D01*
X13796253Y-13455531D02*
X13805777Y-13474579D01*
X13805777Y-13474579D02*
X13815301Y-13512674D01*
X13815301Y-13512674D02*
X13815301Y-13560293D01*
X13815301Y-13560293D02*
X13805777Y-13598388D01*
X13805777Y-13598388D02*
X13796253Y-13617436D01*
X13796253Y-13617436D02*
X13786729Y-13626960D01*
X13786729Y-13626960D02*
X13767682Y-13636484D01*
X13767682Y-13636484D02*
X13748634Y-13636484D01*
X13748634Y-13636484D02*
X13729586Y-13626960D01*
X13729586Y-13626960D02*
X13720063Y-13617436D01*
X13720063Y-13617436D02*
X13710539Y-13598388D01*
X13710539Y-13598388D02*
X13701015Y-13560293D01*
X13701015Y-13560293D02*
X13701015Y-13512674D01*
X13701015Y-13512674D02*
X13710539Y-13474579D01*
X13710539Y-13474579D02*
X13720063Y-13455531D01*
X13720063Y-13455531D02*
X13729586Y-13446008D01*
X13729586Y-13446008D02*
X13748634Y-13436484D01*
X13901015Y-13617436D02*
X13910539Y-13626960D01*
X13910539Y-13626960D02*
X13901015Y-13636484D01*
X13901015Y-13636484D02*
X13891491Y-13626960D01*
X13891491Y-13626960D02*
X13901015Y-13617436D01*
X13901015Y-13617436D02*
X13901015Y-13636484D01*
X14034348Y-13436484D02*
X14053396Y-13436484D01*
X14053396Y-13436484D02*
X14072444Y-13446008D01*
X14072444Y-13446008D02*
X14081967Y-13455531D01*
X14081967Y-13455531D02*
X14091491Y-13474579D01*
X14091491Y-13474579D02*
X14101015Y-13512674D01*
X14101015Y-13512674D02*
X14101015Y-13560293D01*
X14101015Y-13560293D02*
X14091491Y-13598388D01*
X14091491Y-13598388D02*
X14081967Y-13617436D01*
X14081967Y-13617436D02*
X14072444Y-13626960D01*
X14072444Y-13626960D02*
X14053396Y-13636484D01*
X14053396Y-13636484D02*
X14034348Y-13636484D01*
X14034348Y-13636484D02*
X14015301Y-13626960D01*
X14015301Y-13626960D02*
X14005777Y-13617436D01*
X14005777Y-13617436D02*
X13996253Y-13598388D01*
X13996253Y-13598388D02*
X13986729Y-13560293D01*
X13986729Y-13560293D02*
X13986729Y-13512674D01*
X13986729Y-13512674D02*
X13996253Y-13474579D01*
X13996253Y-13474579D02*
X14005777Y-13455531D01*
X14005777Y-13455531D02*
X14015301Y-13446008D01*
X14015301Y-13446008D02*
X14034348Y-13436484D01*
X14291491Y-13636484D02*
X14177206Y-13636484D01*
X14234348Y-13636484D02*
X14234348Y-13436484D01*
X14234348Y-13436484D02*
X14215301Y-13465055D01*
X14215301Y-13465055D02*
X14196253Y-13484103D01*
X14196253Y-13484103D02*
X14177206Y-13493627D01*
X14481967Y-13636484D02*
X14367682Y-13636484D01*
X14424825Y-13636484D02*
X14424825Y-13436484D01*
X14424825Y-13436484D02*
X14405777Y-13465055D01*
X14405777Y-13465055D02*
X14386729Y-13484103D01*
X14386729Y-13484103D02*
X14367682Y-13493627D01*
X14596253Y-13522198D02*
X14577206Y-13512674D01*
X14577206Y-13512674D02*
X14567682Y-13503150D01*
X14567682Y-13503150D02*
X14558158Y-13484103D01*
X14558158Y-13484103D02*
X14558158Y-13474579D01*
X14558158Y-13474579D02*
X14567682Y-13455531D01*
X14567682Y-13455531D02*
X14577206Y-13446008D01*
X14577206Y-13446008D02*
X14596253Y-13436484D01*
X14596253Y-13436484D02*
X14634348Y-13436484D01*
X14634348Y-13436484D02*
X14653396Y-13446008D01*
X14653396Y-13446008D02*
X14662920Y-13455531D01*
X14662920Y-13455531D02*
X14672444Y-13474579D01*
X14672444Y-13474579D02*
X14672444Y-13484103D01*
X14672444Y-13484103D02*
X14662920Y-13503150D01*
X14662920Y-13503150D02*
X14653396Y-13512674D01*
X14653396Y-13512674D02*
X14634348Y-13522198D01*
X14634348Y-13522198D02*
X14596253Y-13522198D01*
X14596253Y-13522198D02*
X14577206Y-13531722D01*
X14577206Y-13531722D02*
X14567682Y-13541246D01*
X14567682Y-13541246D02*
X14558158Y-13560293D01*
X14558158Y-13560293D02*
X14558158Y-13598388D01*
X14558158Y-13598388D02*
X14567682Y-13617436D01*
X14567682Y-13617436D02*
X14577206Y-13626960D01*
X14577206Y-13626960D02*
X14596253Y-13636484D01*
X14596253Y-13636484D02*
X14634348Y-13636484D01*
X14634348Y-13636484D02*
X14653396Y-13626960D01*
X14653396Y-13626960D02*
X14662920Y-13617436D01*
X14662920Y-13617436D02*
X14672444Y-13598388D01*
X14672444Y-13598388D02*
X14672444Y-13560293D01*
X14672444Y-13560293D02*
X14662920Y-13541246D01*
X14662920Y-13541246D02*
X14653396Y-13531722D01*
X14653396Y-13531722D02*
X14634348Y-13522198D01*
X14748634Y-13436484D02*
X14748634Y-13474579D01*
X14824825Y-13436484D02*
X14824825Y-13474579D01*
X15120063Y-13712674D02*
X15110539Y-13703150D01*
X15110539Y-13703150D02*
X15091491Y-13674579D01*
X15091491Y-13674579D02*
X15081968Y-13655531D01*
X15081968Y-13655531D02*
X15072444Y-13626960D01*
X15072444Y-13626960D02*
X15062920Y-13579341D01*
X15062920Y-13579341D02*
X15062920Y-13541246D01*
X15062920Y-13541246D02*
X15072444Y-13493627D01*
X15072444Y-13493627D02*
X15081968Y-13465055D01*
X15081968Y-13465055D02*
X15091491Y-13446008D01*
X15091491Y-13446008D02*
X15110539Y-13417436D01*
X15110539Y-13417436D02*
X15120063Y-13407912D01*
X15205777Y-13636484D02*
X15243872Y-13636484D01*
X15243872Y-13636484D02*
X15262920Y-13626960D01*
X15262920Y-13626960D02*
X15272444Y-13617436D01*
X15272444Y-13617436D02*
X15291491Y-13588865D01*
X15291491Y-13588865D02*
X15301015Y-13550769D01*
X15301015Y-13550769D02*
X15301015Y-13474579D01*
X15301015Y-13474579D02*
X15291491Y-13455531D01*
X15291491Y-13455531D02*
X15281968Y-13446008D01*
X15281968Y-13446008D02*
X15262920Y-13436484D01*
X15262920Y-13436484D02*
X15224825Y-13436484D01*
X15224825Y-13436484D02*
X15205777Y-13446008D01*
X15205777Y-13446008D02*
X15196253Y-13455531D01*
X15196253Y-13455531D02*
X15186729Y-13474579D01*
X15186729Y-13474579D02*
X15186729Y-13522198D01*
X15186729Y-13522198D02*
X15196253Y-13541246D01*
X15196253Y-13541246D02*
X15205777Y-13550769D01*
X15205777Y-13550769D02*
X15224825Y-13560293D01*
X15224825Y-13560293D02*
X15262920Y-13560293D01*
X15262920Y-13560293D02*
X15281968Y-13550769D01*
X15281968Y-13550769D02*
X15291491Y-13541246D01*
X15291491Y-13541246D02*
X15301015Y-13522198D01*
X15377206Y-13455531D02*
X15386729Y-13446008D01*
X15386729Y-13446008D02*
X15405777Y-13436484D01*
X15405777Y-13436484D02*
X15453396Y-13436484D01*
X15453396Y-13436484D02*
X15472444Y-13446008D01*
X15472444Y-13446008D02*
X15481968Y-13455531D01*
X15481968Y-13455531D02*
X15491491Y-13474579D01*
X15491491Y-13474579D02*
X15491491Y-13493627D01*
X15491491Y-13493627D02*
X15481968Y-13522198D01*
X15481968Y-13522198D02*
X15367682Y-13636484D01*
X15367682Y-13636484D02*
X15491491Y-13636484D01*
X15729587Y-13636484D02*
X15729587Y-13436484D01*
X15815301Y-13636484D02*
X15815301Y-13531722D01*
X15815301Y-13531722D02*
X15805777Y-13512674D01*
X15805777Y-13512674D02*
X15786730Y-13503150D01*
X15786730Y-13503150D02*
X15758158Y-13503150D01*
X15758158Y-13503150D02*
X15739110Y-13512674D01*
X15739110Y-13512674D02*
X15729587Y-13522198D01*
X15939110Y-13636484D02*
X15920063Y-13626960D01*
X15920063Y-13626960D02*
X15910539Y-13617436D01*
X15910539Y-13617436D02*
X15901015Y-13598388D01*
X15901015Y-13598388D02*
X15901015Y-13541246D01*
X15901015Y-13541246D02*
X15910539Y-13522198D01*
X15910539Y-13522198D02*
X15920063Y-13512674D01*
X15920063Y-13512674D02*
X15939110Y-13503150D01*
X15939110Y-13503150D02*
X15967682Y-13503150D01*
X15967682Y-13503150D02*
X15986730Y-13512674D01*
X15986730Y-13512674D02*
X15996253Y-13522198D01*
X15996253Y-13522198D02*
X16005777Y-13541246D01*
X16005777Y-13541246D02*
X16005777Y-13598388D01*
X16005777Y-13598388D02*
X15996253Y-13617436D01*
X15996253Y-13617436D02*
X15986730Y-13626960D01*
X15986730Y-13626960D02*
X15967682Y-13636484D01*
X15967682Y-13636484D02*
X15939110Y-13636484D01*
X16120063Y-13636484D02*
X16101015Y-13626960D01*
X16101015Y-13626960D02*
X16091491Y-13607912D01*
X16091491Y-13607912D02*
X16091491Y-13436484D01*
X16272444Y-13626960D02*
X16253396Y-13636484D01*
X16253396Y-13636484D02*
X16215301Y-13636484D01*
X16215301Y-13636484D02*
X16196253Y-13626960D01*
X16196253Y-13626960D02*
X16186730Y-13607912D01*
X16186730Y-13607912D02*
X16186730Y-13531722D01*
X16186730Y-13531722D02*
X16196253Y-13512674D01*
X16196253Y-13512674D02*
X16215301Y-13503150D01*
X16215301Y-13503150D02*
X16253396Y-13503150D01*
X16253396Y-13503150D02*
X16272444Y-13512674D01*
X16272444Y-13512674D02*
X16281968Y-13531722D01*
X16281968Y-13531722D02*
X16281968Y-13550769D01*
X16281968Y-13550769D02*
X16186730Y-13569817D01*
X16358158Y-13626960D02*
X16377206Y-13636484D01*
X16377206Y-13636484D02*
X16415301Y-13636484D01*
X16415301Y-13636484D02*
X16434349Y-13626960D01*
X16434349Y-13626960D02*
X16443872Y-13607912D01*
X16443872Y-13607912D02*
X16443872Y-13598388D01*
X16443872Y-13598388D02*
X16434349Y-13579341D01*
X16434349Y-13579341D02*
X16415301Y-13569817D01*
X16415301Y-13569817D02*
X16386730Y-13569817D01*
X16386730Y-13569817D02*
X16367682Y-13560293D01*
X16367682Y-13560293D02*
X16358158Y-13541246D01*
X16358158Y-13541246D02*
X16358158Y-13531722D01*
X16358158Y-13531722D02*
X16367682Y-13512674D01*
X16367682Y-13512674D02*
X16386730Y-13503150D01*
X16386730Y-13503150D02*
X16415301Y-13503150D01*
X16415301Y-13503150D02*
X16434349Y-13512674D01*
X16510539Y-13712674D02*
X16520063Y-13703150D01*
X16520063Y-13703150D02*
X16539111Y-13674579D01*
X16539111Y-13674579D02*
X16548634Y-13655531D01*
X16548634Y-13655531D02*
X16558158Y-13626960D01*
X16558158Y-13626960D02*
X16567682Y-13579341D01*
X16567682Y-13579341D02*
X16567682Y-13541246D01*
X16567682Y-13541246D02*
X16558158Y-13493627D01*
X16558158Y-13493627D02*
X16548634Y-13465055D01*
X16548634Y-13465055D02*
X16539111Y-13446008D01*
X16539111Y-13446008D02*
X16520063Y-13417436D01*
X16520063Y-13417436D02*
X16510539Y-13407912D01*
D10*
X11545000Y-13809000D02*
G75*
G02*
X11485000Y-13809000I-30000J0D01*
G01*
X11485000Y-13809000D02*
G75*
G02*
X11545000Y-13809000I30000J0D01*
G01*
D11*
X11843872Y-13700484D02*
X11862920Y-13700484D01*
X11862920Y-13700484D02*
X11881967Y-13710008D01*
X11881967Y-13710008D02*
X11891491Y-13719531D01*
X11891491Y-13719531D02*
X11901015Y-13738579D01*
X11901015Y-13738579D02*
X11910539Y-13776674D01*
X11910539Y-13776674D02*
X11910539Y-13824293D01*
X11910539Y-13824293D02*
X11901015Y-13862388D01*
X11901015Y-13862388D02*
X11891491Y-13881436D01*
X11891491Y-13881436D02*
X11881967Y-13890960D01*
X11881967Y-13890960D02*
X11862920Y-13900484D01*
X11862920Y-13900484D02*
X11843872Y-13900484D01*
X11843872Y-13900484D02*
X11824824Y-13890960D01*
X11824824Y-13890960D02*
X11815301Y-13881436D01*
X11815301Y-13881436D02*
X11805777Y-13862388D01*
X11805777Y-13862388D02*
X11796253Y-13824293D01*
X11796253Y-13824293D02*
X11796253Y-13776674D01*
X11796253Y-13776674D02*
X11805777Y-13738579D01*
X11805777Y-13738579D02*
X11815301Y-13719531D01*
X11815301Y-13719531D02*
X11824824Y-13710008D01*
X11824824Y-13710008D02*
X11843872Y-13700484D01*
X11996253Y-13881436D02*
X12005777Y-13890960D01*
X12005777Y-13890960D02*
X11996253Y-13900484D01*
X11996253Y-13900484D02*
X11986729Y-13890960D01*
X11986729Y-13890960D02*
X11996253Y-13881436D01*
X11996253Y-13881436D02*
X11996253Y-13900484D01*
X12177205Y-13700484D02*
X12139110Y-13700484D01*
X12139110Y-13700484D02*
X12120062Y-13710008D01*
X12120062Y-13710008D02*
X12110539Y-13719531D01*
X12110539Y-13719531D02*
X12091491Y-13748103D01*
X12091491Y-13748103D02*
X12081967Y-13786198D01*
X12081967Y-13786198D02*
X12081967Y-13862388D01*
X12081967Y-13862388D02*
X12091491Y-13881436D01*
X12091491Y-13881436D02*
X12101015Y-13890960D01*
X12101015Y-13890960D02*
X12120062Y-13900484D01*
X12120062Y-13900484D02*
X12158158Y-13900484D01*
X12158158Y-13900484D02*
X12177205Y-13890960D01*
X12177205Y-13890960D02*
X12186729Y-13881436D01*
X12186729Y-13881436D02*
X12196253Y-13862388D01*
X12196253Y-13862388D02*
X12196253Y-13814769D01*
X12196253Y-13814769D02*
X12186729Y-13795722D01*
X12186729Y-13795722D02*
X12177205Y-13786198D01*
X12177205Y-13786198D02*
X12158158Y-13776674D01*
X12158158Y-13776674D02*
X12120062Y-13776674D01*
X12120062Y-13776674D02*
X12101015Y-13786198D01*
X12101015Y-13786198D02*
X12091491Y-13795722D01*
X12091491Y-13795722D02*
X12081967Y-13814769D01*
X12320062Y-13700484D02*
X12339110Y-13700484D01*
X12339110Y-13700484D02*
X12358158Y-13710008D01*
X12358158Y-13710008D02*
X12367682Y-13719531D01*
X12367682Y-13719531D02*
X12377205Y-13738579D01*
X12377205Y-13738579D02*
X12386729Y-13776674D01*
X12386729Y-13776674D02*
X12386729Y-13824293D01*
X12386729Y-13824293D02*
X12377205Y-13862388D01*
X12377205Y-13862388D02*
X12367682Y-13881436D01*
X12367682Y-13881436D02*
X12358158Y-13890960D01*
X12358158Y-13890960D02*
X12339110Y-13900484D01*
X12339110Y-13900484D02*
X12320062Y-13900484D01*
X12320062Y-13900484D02*
X12301015Y-13890960D01*
X12301015Y-13890960D02*
X12291491Y-13881436D01*
X12291491Y-13881436D02*
X12281967Y-13862388D01*
X12281967Y-13862388D02*
X12272443Y-13824293D01*
X12272443Y-13824293D02*
X12272443Y-13776674D01*
X12272443Y-13776674D02*
X12281967Y-13738579D01*
X12281967Y-13738579D02*
X12291491Y-13719531D01*
X12291491Y-13719531D02*
X12301015Y-13710008D01*
X12301015Y-13710008D02*
X12320062Y-13700484D01*
X12510539Y-13700484D02*
X12529586Y-13700484D01*
X12529586Y-13700484D02*
X12548634Y-13710008D01*
X12548634Y-13710008D02*
X12558158Y-13719531D01*
X12558158Y-13719531D02*
X12567682Y-13738579D01*
X12567682Y-13738579D02*
X12577205Y-13776674D01*
X12577205Y-13776674D02*
X12577205Y-13824293D01*
X12577205Y-13824293D02*
X12567682Y-13862388D01*
X12567682Y-13862388D02*
X12558158Y-13881436D01*
X12558158Y-13881436D02*
X12548634Y-13890960D01*
X12548634Y-13890960D02*
X12529586Y-13900484D01*
X12529586Y-13900484D02*
X12510539Y-13900484D01*
X12510539Y-13900484D02*
X12491491Y-13890960D01*
X12491491Y-13890960D02*
X12481967Y-13881436D01*
X12481967Y-13881436D02*
X12472443Y-13862388D01*
X12472443Y-13862388D02*
X12462920Y-13824293D01*
X12462920Y-13824293D02*
X12462920Y-13776674D01*
X12462920Y-13776674D02*
X12472443Y-13738579D01*
X12472443Y-13738579D02*
X12481967Y-13719531D01*
X12481967Y-13719531D02*
X12491491Y-13710008D01*
X12491491Y-13710008D02*
X12510539Y-13700484D01*
X12662920Y-13900484D02*
X12662920Y-13767150D01*
X12662920Y-13786198D02*
X12672443Y-13776674D01*
X12672443Y-13776674D02*
X12691491Y-13767150D01*
X12691491Y-13767150D02*
X12720063Y-13767150D01*
X12720063Y-13767150D02*
X12739110Y-13776674D01*
X12739110Y-13776674D02*
X12748634Y-13795722D01*
X12748634Y-13795722D02*
X12748634Y-13900484D01*
X12748634Y-13795722D02*
X12758158Y-13776674D01*
X12758158Y-13776674D02*
X12777205Y-13767150D01*
X12777205Y-13767150D02*
X12805777Y-13767150D01*
X12805777Y-13767150D02*
X12824824Y-13776674D01*
X12824824Y-13776674D02*
X12834348Y-13795722D01*
X12834348Y-13795722D02*
X12834348Y-13900484D01*
X12929586Y-13900484D02*
X12929586Y-13767150D01*
X12929586Y-13786198D02*
X12939110Y-13776674D01*
X12939110Y-13776674D02*
X12958158Y-13767150D01*
X12958158Y-13767150D02*
X12986729Y-13767150D01*
X12986729Y-13767150D02*
X13005777Y-13776674D01*
X13005777Y-13776674D02*
X13015301Y-13795722D01*
X13015301Y-13795722D02*
X13015301Y-13900484D01*
X13015301Y-13795722D02*
X13024824Y-13776674D01*
X13024824Y-13776674D02*
X13043872Y-13767150D01*
X13043872Y-13767150D02*
X13072443Y-13767150D01*
X13072443Y-13767150D02*
X13091491Y-13776674D01*
X13091491Y-13776674D02*
X13101015Y-13795722D01*
X13101015Y-13795722D02*
X13101015Y-13900484D01*
X13491491Y-13690960D02*
X13320063Y-13948103D01*
X13748634Y-13700484D02*
X13767682Y-13700484D01*
X13767682Y-13700484D02*
X13786729Y-13710008D01*
X13786729Y-13710008D02*
X13796253Y-13719531D01*
X13796253Y-13719531D02*
X13805777Y-13738579D01*
X13805777Y-13738579D02*
X13815301Y-13776674D01*
X13815301Y-13776674D02*
X13815301Y-13824293D01*
X13815301Y-13824293D02*
X13805777Y-13862388D01*
X13805777Y-13862388D02*
X13796253Y-13881436D01*
X13796253Y-13881436D02*
X13786729Y-13890960D01*
X13786729Y-13890960D02*
X13767682Y-13900484D01*
X13767682Y-13900484D02*
X13748634Y-13900484D01*
X13748634Y-13900484D02*
X13729586Y-13890960D01*
X13729586Y-13890960D02*
X13720063Y-13881436D01*
X13720063Y-13881436D02*
X13710539Y-13862388D01*
X13710539Y-13862388D02*
X13701015Y-13824293D01*
X13701015Y-13824293D02*
X13701015Y-13776674D01*
X13701015Y-13776674D02*
X13710539Y-13738579D01*
X13710539Y-13738579D02*
X13720063Y-13719531D01*
X13720063Y-13719531D02*
X13729586Y-13710008D01*
X13729586Y-13710008D02*
X13748634Y-13700484D01*
X13901015Y-13881436D02*
X13910539Y-13890960D01*
X13910539Y-13890960D02*
X13901015Y-13900484D01*
X13901015Y-13900484D02*
X13891491Y-13890960D01*
X13891491Y-13890960D02*
X13901015Y-13881436D01*
X13901015Y-13881436D02*
X13901015Y-13900484D01*
X14034348Y-13700484D02*
X14053396Y-13700484D01*
X14053396Y-13700484D02*
X14072444Y-13710008D01*
X14072444Y-13710008D02*
X14081967Y-13719531D01*
X14081967Y-13719531D02*
X14091491Y-13738579D01*
X14091491Y-13738579D02*
X14101015Y-13776674D01*
X14101015Y-13776674D02*
X14101015Y-13824293D01*
X14101015Y-13824293D02*
X14091491Y-13862388D01*
X14091491Y-13862388D02*
X14081967Y-13881436D01*
X14081967Y-13881436D02*
X14072444Y-13890960D01*
X14072444Y-13890960D02*
X14053396Y-13900484D01*
X14053396Y-13900484D02*
X14034348Y-13900484D01*
X14034348Y-13900484D02*
X14015301Y-13890960D01*
X14015301Y-13890960D02*
X14005777Y-13881436D01*
X14005777Y-13881436D02*
X13996253Y-13862388D01*
X13996253Y-13862388D02*
X13986729Y-13824293D01*
X13986729Y-13824293D02*
X13986729Y-13776674D01*
X13986729Y-13776674D02*
X13996253Y-13738579D01*
X13996253Y-13738579D02*
X14005777Y-13719531D01*
X14005777Y-13719531D02*
X14015301Y-13710008D01*
X14015301Y-13710008D02*
X14034348Y-13700484D01*
X14177206Y-13719531D02*
X14186729Y-13710008D01*
X14186729Y-13710008D02*
X14205777Y-13700484D01*
X14205777Y-13700484D02*
X14253396Y-13700484D01*
X14253396Y-13700484D02*
X14272444Y-13710008D01*
X14272444Y-13710008D02*
X14281967Y-13719531D01*
X14281967Y-13719531D02*
X14291491Y-13738579D01*
X14291491Y-13738579D02*
X14291491Y-13757627D01*
X14291491Y-13757627D02*
X14281967Y-13786198D01*
X14281967Y-13786198D02*
X14167682Y-13900484D01*
X14167682Y-13900484D02*
X14291491Y-13900484D01*
X14358158Y-13700484D02*
X14481967Y-13700484D01*
X14481967Y-13700484D02*
X14415301Y-13776674D01*
X14415301Y-13776674D02*
X14443872Y-13776674D01*
X14443872Y-13776674D02*
X14462920Y-13786198D01*
X14462920Y-13786198D02*
X14472444Y-13795722D01*
X14472444Y-13795722D02*
X14481967Y-13814769D01*
X14481967Y-13814769D02*
X14481967Y-13862388D01*
X14481967Y-13862388D02*
X14472444Y-13881436D01*
X14472444Y-13881436D02*
X14462920Y-13890960D01*
X14462920Y-13890960D02*
X14443872Y-13900484D01*
X14443872Y-13900484D02*
X14386729Y-13900484D01*
X14386729Y-13900484D02*
X14367682Y-13890960D01*
X14367682Y-13890960D02*
X14358158Y-13881436D01*
X14653396Y-13700484D02*
X14615301Y-13700484D01*
X14615301Y-13700484D02*
X14596253Y-13710008D01*
X14596253Y-13710008D02*
X14586729Y-13719531D01*
X14586729Y-13719531D02*
X14567682Y-13748103D01*
X14567682Y-13748103D02*
X14558158Y-13786198D01*
X14558158Y-13786198D02*
X14558158Y-13862388D01*
X14558158Y-13862388D02*
X14567682Y-13881436D01*
X14567682Y-13881436D02*
X14577206Y-13890960D01*
X14577206Y-13890960D02*
X14596253Y-13900484D01*
X14596253Y-13900484D02*
X14634348Y-13900484D01*
X14634348Y-13900484D02*
X14653396Y-13890960D01*
X14653396Y-13890960D02*
X14662920Y-13881436D01*
X14662920Y-13881436D02*
X14672444Y-13862388D01*
X14672444Y-13862388D02*
X14672444Y-13814769D01*
X14672444Y-13814769D02*
X14662920Y-13795722D01*
X14662920Y-13795722D02*
X14653396Y-13786198D01*
X14653396Y-13786198D02*
X14634348Y-13776674D01*
X14634348Y-13776674D02*
X14596253Y-13776674D01*
X14596253Y-13776674D02*
X14577206Y-13786198D01*
X14577206Y-13786198D02*
X14567682Y-13795722D01*
X14567682Y-13795722D02*
X14558158Y-13814769D01*
X14748634Y-13700484D02*
X14748634Y-13738579D01*
X14824825Y-13700484D02*
X14824825Y-13738579D01*
X15120063Y-13976674D02*
X15110539Y-13967150D01*
X15110539Y-13967150D02*
X15091491Y-13938579D01*
X15091491Y-13938579D02*
X15081968Y-13919531D01*
X15081968Y-13919531D02*
X15072444Y-13890960D01*
X15072444Y-13890960D02*
X15062920Y-13843341D01*
X15062920Y-13843341D02*
X15062920Y-13805246D01*
X15062920Y-13805246D02*
X15072444Y-13757627D01*
X15072444Y-13757627D02*
X15081968Y-13729055D01*
X15081968Y-13729055D02*
X15091491Y-13710008D01*
X15091491Y-13710008D02*
X15110539Y-13681436D01*
X15110539Y-13681436D02*
X15120063Y-13671912D01*
X15234348Y-13700484D02*
X15253396Y-13700484D01*
X15253396Y-13700484D02*
X15272444Y-13710008D01*
X15272444Y-13710008D02*
X15281968Y-13719531D01*
X15281968Y-13719531D02*
X15291491Y-13738579D01*
X15291491Y-13738579D02*
X15301015Y-13776674D01*
X15301015Y-13776674D02*
X15301015Y-13824293D01*
X15301015Y-13824293D02*
X15291491Y-13862388D01*
X15291491Y-13862388D02*
X15281968Y-13881436D01*
X15281968Y-13881436D02*
X15272444Y-13890960D01*
X15272444Y-13890960D02*
X15253396Y-13900484D01*
X15253396Y-13900484D02*
X15234348Y-13900484D01*
X15234348Y-13900484D02*
X15215301Y-13890960D01*
X15215301Y-13890960D02*
X15205777Y-13881436D01*
X15205777Y-13881436D02*
X15196253Y-13862388D01*
X15196253Y-13862388D02*
X15186729Y-13824293D01*
X15186729Y-13824293D02*
X15186729Y-13776674D01*
X15186729Y-13776674D02*
X15196253Y-13738579D01*
X15196253Y-13738579D02*
X15205777Y-13719531D01*
X15205777Y-13719531D02*
X15215301Y-13710008D01*
X15215301Y-13710008D02*
X15234348Y-13700484D01*
X15539110Y-13900484D02*
X15539110Y-13700484D01*
X15624825Y-13900484D02*
X15624825Y-13795722D01*
X15624825Y-13795722D02*
X15615301Y-13776674D01*
X15615301Y-13776674D02*
X15596253Y-13767150D01*
X15596253Y-13767150D02*
X15567682Y-13767150D01*
X15567682Y-13767150D02*
X15548634Y-13776674D01*
X15548634Y-13776674D02*
X15539110Y-13786198D01*
X15748634Y-13900484D02*
X15729587Y-13890960D01*
X15729587Y-13890960D02*
X15720063Y-13881436D01*
X15720063Y-13881436D02*
X15710539Y-13862388D01*
X15710539Y-13862388D02*
X15710539Y-13805246D01*
X15710539Y-13805246D02*
X15720063Y-13786198D01*
X15720063Y-13786198D02*
X15729587Y-13776674D01*
X15729587Y-13776674D02*
X15748634Y-13767150D01*
X15748634Y-13767150D02*
X15777206Y-13767150D01*
X15777206Y-13767150D02*
X15796253Y-13776674D01*
X15796253Y-13776674D02*
X15805777Y-13786198D01*
X15805777Y-13786198D02*
X15815301Y-13805246D01*
X15815301Y-13805246D02*
X15815301Y-13862388D01*
X15815301Y-13862388D02*
X15805777Y-13881436D01*
X15805777Y-13881436D02*
X15796253Y-13890960D01*
X15796253Y-13890960D02*
X15777206Y-13900484D01*
X15777206Y-13900484D02*
X15748634Y-13900484D01*
X15929587Y-13900484D02*
X15910539Y-13890960D01*
X15910539Y-13890960D02*
X15901015Y-13871912D01*
X15901015Y-13871912D02*
X15901015Y-13700484D01*
X16081968Y-13890960D02*
X16062920Y-13900484D01*
X16062920Y-13900484D02*
X16024825Y-13900484D01*
X16024825Y-13900484D02*
X16005777Y-13890960D01*
X16005777Y-13890960D02*
X15996253Y-13871912D01*
X15996253Y-13871912D02*
X15996253Y-13795722D01*
X15996253Y-13795722D02*
X16005777Y-13776674D01*
X16005777Y-13776674D02*
X16024825Y-13767150D01*
X16024825Y-13767150D02*
X16062920Y-13767150D01*
X16062920Y-13767150D02*
X16081968Y-13776674D01*
X16081968Y-13776674D02*
X16091491Y-13795722D01*
X16091491Y-13795722D02*
X16091491Y-13814769D01*
X16091491Y-13814769D02*
X15996253Y-13833817D01*
X16167682Y-13890960D02*
X16186730Y-13900484D01*
X16186730Y-13900484D02*
X16224825Y-13900484D01*
X16224825Y-13900484D02*
X16243872Y-13890960D01*
X16243872Y-13890960D02*
X16253396Y-13871912D01*
X16253396Y-13871912D02*
X16253396Y-13862388D01*
X16253396Y-13862388D02*
X16243872Y-13843341D01*
X16243872Y-13843341D02*
X16224825Y-13833817D01*
X16224825Y-13833817D02*
X16196253Y-13833817D01*
X16196253Y-13833817D02*
X16177206Y-13824293D01*
X16177206Y-13824293D02*
X16167682Y-13805246D01*
X16167682Y-13805246D02*
X16167682Y-13795722D01*
X16167682Y-13795722D02*
X16177206Y-13776674D01*
X16177206Y-13776674D02*
X16196253Y-13767150D01*
X16196253Y-13767150D02*
X16224825Y-13767150D01*
X16224825Y-13767150D02*
X16243872Y-13776674D01*
X16491492Y-13824293D02*
X16643873Y-13824293D01*
X16567682Y-13900484D02*
X16567682Y-13748103D01*
X16977206Y-13767150D02*
X16977206Y-13900484D01*
X16929587Y-13690960D02*
X16881968Y-13833817D01*
X16881968Y-13833817D02*
X17005777Y-13833817D01*
X17224825Y-13890960D02*
X17243873Y-13900484D01*
X17243873Y-13900484D02*
X17281968Y-13900484D01*
X17281968Y-13900484D02*
X17301016Y-13890960D01*
X17301016Y-13890960D02*
X17310539Y-13871912D01*
X17310539Y-13871912D02*
X17310539Y-13862388D01*
X17310539Y-13862388D02*
X17301016Y-13843341D01*
X17301016Y-13843341D02*
X17281968Y-13833817D01*
X17281968Y-13833817D02*
X17253396Y-13833817D01*
X17253396Y-13833817D02*
X17234349Y-13824293D01*
X17234349Y-13824293D02*
X17224825Y-13805246D01*
X17224825Y-13805246D02*
X17224825Y-13795722D01*
X17224825Y-13795722D02*
X17234349Y-13776674D01*
X17234349Y-13776674D02*
X17253396Y-13767150D01*
X17253396Y-13767150D02*
X17281968Y-13767150D01*
X17281968Y-13767150D02*
X17301016Y-13776674D01*
X17424825Y-13900484D02*
X17405777Y-13890960D01*
X17405777Y-13890960D02*
X17396254Y-13871912D01*
X17396254Y-13871912D02*
X17396254Y-13700484D01*
X17529587Y-13900484D02*
X17510539Y-13890960D01*
X17510539Y-13890960D02*
X17501016Y-13881436D01*
X17501016Y-13881436D02*
X17491492Y-13862388D01*
X17491492Y-13862388D02*
X17491492Y-13805246D01*
X17491492Y-13805246D02*
X17501016Y-13786198D01*
X17501016Y-13786198D02*
X17510539Y-13776674D01*
X17510539Y-13776674D02*
X17529587Y-13767150D01*
X17529587Y-13767150D02*
X17558158Y-13767150D01*
X17558158Y-13767150D02*
X17577206Y-13776674D01*
X17577206Y-13776674D02*
X17586730Y-13786198D01*
X17586730Y-13786198D02*
X17596254Y-13805246D01*
X17596254Y-13805246D02*
X17596254Y-13862388D01*
X17596254Y-13862388D02*
X17586730Y-13881436D01*
X17586730Y-13881436D02*
X17577206Y-13890960D01*
X17577206Y-13890960D02*
X17558158Y-13900484D01*
X17558158Y-13900484D02*
X17529587Y-13900484D01*
X17653397Y-13767150D02*
X17729587Y-13767150D01*
X17681968Y-13700484D02*
X17681968Y-13871912D01*
X17681968Y-13871912D02*
X17691492Y-13890960D01*
X17691492Y-13890960D02*
X17710539Y-13900484D01*
X17710539Y-13900484D02*
X17729587Y-13900484D01*
X17786730Y-13890960D02*
X17805777Y-13900484D01*
X17805777Y-13900484D02*
X17843873Y-13900484D01*
X17843873Y-13900484D02*
X17862920Y-13890960D01*
X17862920Y-13890960D02*
X17872444Y-13871912D01*
X17872444Y-13871912D02*
X17872444Y-13862388D01*
X17872444Y-13862388D02*
X17862920Y-13843341D01*
X17862920Y-13843341D02*
X17843873Y-13833817D01*
X17843873Y-13833817D02*
X17815301Y-13833817D01*
X17815301Y-13833817D02*
X17796254Y-13824293D01*
X17796254Y-13824293D02*
X17786730Y-13805246D01*
X17786730Y-13805246D02*
X17786730Y-13795722D01*
X17786730Y-13795722D02*
X17796254Y-13776674D01*
X17796254Y-13776674D02*
X17815301Y-13767150D01*
X17815301Y-13767150D02*
X17843873Y-13767150D01*
X17843873Y-13767150D02*
X17862920Y-13776674D01*
X17939111Y-13976674D02*
X17948635Y-13967150D01*
X17948635Y-13967150D02*
X17967682Y-13938579D01*
X17967682Y-13938579D02*
X17977206Y-13919531D01*
X17977206Y-13919531D02*
X17986730Y-13890960D01*
X17986730Y-13890960D02*
X17996254Y-13843341D01*
X17996254Y-13843341D02*
X17996254Y-13805246D01*
X17996254Y-13805246D02*
X17986730Y-13757627D01*
X17986730Y-13757627D02*
X17977206Y-13729055D01*
X17977206Y-13729055D02*
X17967682Y-13710008D01*
X17967682Y-13710008D02*
X17948635Y-13681436D01*
X17948635Y-13681436D02*
X17939111Y-13671912D01*
D10*
X11495000Y-14023000D02*
X11495000Y-14123000D01*
X11445000Y-14073000D02*
X11545000Y-14073000D01*
D11*
X11910539Y-14164484D02*
X11796253Y-14164484D01*
X11853396Y-14164484D02*
X11853396Y-13964484D01*
X11853396Y-13964484D02*
X11834348Y-13993055D01*
X11834348Y-13993055D02*
X11815301Y-14012103D01*
X11815301Y-14012103D02*
X11796253Y-14021627D01*
X11996253Y-14145436D02*
X12005777Y-14154960D01*
X12005777Y-14154960D02*
X11996253Y-14164484D01*
X11996253Y-14164484D02*
X11986729Y-14154960D01*
X11986729Y-14154960D02*
X11996253Y-14145436D01*
X11996253Y-14145436D02*
X11996253Y-14164484D01*
X12129586Y-13964484D02*
X12148634Y-13964484D01*
X12148634Y-13964484D02*
X12167682Y-13974008D01*
X12167682Y-13974008D02*
X12177205Y-13983531D01*
X12177205Y-13983531D02*
X12186729Y-14002579D01*
X12186729Y-14002579D02*
X12196253Y-14040674D01*
X12196253Y-14040674D02*
X12196253Y-14088293D01*
X12196253Y-14088293D02*
X12186729Y-14126388D01*
X12186729Y-14126388D02*
X12177205Y-14145436D01*
X12177205Y-14145436D02*
X12167682Y-14154960D01*
X12167682Y-14154960D02*
X12148634Y-14164484D01*
X12148634Y-14164484D02*
X12129586Y-14164484D01*
X12129586Y-14164484D02*
X12110539Y-14154960D01*
X12110539Y-14154960D02*
X12101015Y-14145436D01*
X12101015Y-14145436D02*
X12091491Y-14126388D01*
X12091491Y-14126388D02*
X12081967Y-14088293D01*
X12081967Y-14088293D02*
X12081967Y-14040674D01*
X12081967Y-14040674D02*
X12091491Y-14002579D01*
X12091491Y-14002579D02*
X12101015Y-13983531D01*
X12101015Y-13983531D02*
X12110539Y-13974008D01*
X12110539Y-13974008D02*
X12129586Y-13964484D01*
X12320062Y-13964484D02*
X12339110Y-13964484D01*
X12339110Y-13964484D02*
X12358158Y-13974008D01*
X12358158Y-13974008D02*
X12367682Y-13983531D01*
X12367682Y-13983531D02*
X12377205Y-14002579D01*
X12377205Y-14002579D02*
X12386729Y-14040674D01*
X12386729Y-14040674D02*
X12386729Y-14088293D01*
X12386729Y-14088293D02*
X12377205Y-14126388D01*
X12377205Y-14126388D02*
X12367682Y-14145436D01*
X12367682Y-14145436D02*
X12358158Y-14154960D01*
X12358158Y-14154960D02*
X12339110Y-14164484D01*
X12339110Y-14164484D02*
X12320062Y-14164484D01*
X12320062Y-14164484D02*
X12301015Y-14154960D01*
X12301015Y-14154960D02*
X12291491Y-14145436D01*
X12291491Y-14145436D02*
X12281967Y-14126388D01*
X12281967Y-14126388D02*
X12272443Y-14088293D01*
X12272443Y-14088293D02*
X12272443Y-14040674D01*
X12272443Y-14040674D02*
X12281967Y-14002579D01*
X12281967Y-14002579D02*
X12291491Y-13983531D01*
X12291491Y-13983531D02*
X12301015Y-13974008D01*
X12301015Y-13974008D02*
X12320062Y-13964484D01*
X12510539Y-13964484D02*
X12529586Y-13964484D01*
X12529586Y-13964484D02*
X12548634Y-13974008D01*
X12548634Y-13974008D02*
X12558158Y-13983531D01*
X12558158Y-13983531D02*
X12567682Y-14002579D01*
X12567682Y-14002579D02*
X12577205Y-14040674D01*
X12577205Y-14040674D02*
X12577205Y-14088293D01*
X12577205Y-14088293D02*
X12567682Y-14126388D01*
X12567682Y-14126388D02*
X12558158Y-14145436D01*
X12558158Y-14145436D02*
X12548634Y-14154960D01*
X12548634Y-14154960D02*
X12529586Y-14164484D01*
X12529586Y-14164484D02*
X12510539Y-14164484D01*
X12510539Y-14164484D02*
X12491491Y-14154960D01*
X12491491Y-14154960D02*
X12481967Y-14145436D01*
X12481967Y-14145436D02*
X12472443Y-14126388D01*
X12472443Y-14126388D02*
X12462920Y-14088293D01*
X12462920Y-14088293D02*
X12462920Y-14040674D01*
X12462920Y-14040674D02*
X12472443Y-14002579D01*
X12472443Y-14002579D02*
X12481967Y-13983531D01*
X12481967Y-13983531D02*
X12491491Y-13974008D01*
X12491491Y-13974008D02*
X12510539Y-13964484D01*
X12662920Y-14164484D02*
X12662920Y-14031150D01*
X12662920Y-14050198D02*
X12672443Y-14040674D01*
X12672443Y-14040674D02*
X12691491Y-14031150D01*
X12691491Y-14031150D02*
X12720063Y-14031150D01*
X12720063Y-14031150D02*
X12739110Y-14040674D01*
X12739110Y-14040674D02*
X12748634Y-14059722D01*
X12748634Y-14059722D02*
X12748634Y-14164484D01*
X12748634Y-14059722D02*
X12758158Y-14040674D01*
X12758158Y-14040674D02*
X12777205Y-14031150D01*
X12777205Y-14031150D02*
X12805777Y-14031150D01*
X12805777Y-14031150D02*
X12824824Y-14040674D01*
X12824824Y-14040674D02*
X12834348Y-14059722D01*
X12834348Y-14059722D02*
X12834348Y-14164484D01*
X12929586Y-14164484D02*
X12929586Y-14031150D01*
X12929586Y-14050198D02*
X12939110Y-14040674D01*
X12939110Y-14040674D02*
X12958158Y-14031150D01*
X12958158Y-14031150D02*
X12986729Y-14031150D01*
X12986729Y-14031150D02*
X13005777Y-14040674D01*
X13005777Y-14040674D02*
X13015301Y-14059722D01*
X13015301Y-14059722D02*
X13015301Y-14164484D01*
X13015301Y-14059722D02*
X13024824Y-14040674D01*
X13024824Y-14040674D02*
X13043872Y-14031150D01*
X13043872Y-14031150D02*
X13072443Y-14031150D01*
X13072443Y-14031150D02*
X13091491Y-14040674D01*
X13091491Y-14040674D02*
X13101015Y-14059722D01*
X13101015Y-14059722D02*
X13101015Y-14164484D01*
X13491491Y-13954960D02*
X13320063Y-14212103D01*
X13748634Y-13964484D02*
X13767682Y-13964484D01*
X13767682Y-13964484D02*
X13786729Y-13974008D01*
X13786729Y-13974008D02*
X13796253Y-13983531D01*
X13796253Y-13983531D02*
X13805777Y-14002579D01*
X13805777Y-14002579D02*
X13815301Y-14040674D01*
X13815301Y-14040674D02*
X13815301Y-14088293D01*
X13815301Y-14088293D02*
X13805777Y-14126388D01*
X13805777Y-14126388D02*
X13796253Y-14145436D01*
X13796253Y-14145436D02*
X13786729Y-14154960D01*
X13786729Y-14154960D02*
X13767682Y-14164484D01*
X13767682Y-14164484D02*
X13748634Y-14164484D01*
X13748634Y-14164484D02*
X13729586Y-14154960D01*
X13729586Y-14154960D02*
X13720063Y-14145436D01*
X13720063Y-14145436D02*
X13710539Y-14126388D01*
X13710539Y-14126388D02*
X13701015Y-14088293D01*
X13701015Y-14088293D02*
X13701015Y-14040674D01*
X13701015Y-14040674D02*
X13710539Y-14002579D01*
X13710539Y-14002579D02*
X13720063Y-13983531D01*
X13720063Y-13983531D02*
X13729586Y-13974008D01*
X13729586Y-13974008D02*
X13748634Y-13964484D01*
X13901015Y-14145436D02*
X13910539Y-14154960D01*
X13910539Y-14154960D02*
X13901015Y-14164484D01*
X13901015Y-14164484D02*
X13891491Y-14154960D01*
X13891491Y-14154960D02*
X13901015Y-14145436D01*
X13901015Y-14145436D02*
X13901015Y-14164484D01*
X14034348Y-13964484D02*
X14053396Y-13964484D01*
X14053396Y-13964484D02*
X14072444Y-13974008D01*
X14072444Y-13974008D02*
X14081967Y-13983531D01*
X14081967Y-13983531D02*
X14091491Y-14002579D01*
X14091491Y-14002579D02*
X14101015Y-14040674D01*
X14101015Y-14040674D02*
X14101015Y-14088293D01*
X14101015Y-14088293D02*
X14091491Y-14126388D01*
X14091491Y-14126388D02*
X14081967Y-14145436D01*
X14081967Y-14145436D02*
X14072444Y-14154960D01*
X14072444Y-14154960D02*
X14053396Y-14164484D01*
X14053396Y-14164484D02*
X14034348Y-14164484D01*
X14034348Y-14164484D02*
X14015301Y-14154960D01*
X14015301Y-14154960D02*
X14005777Y-14145436D01*
X14005777Y-14145436D02*
X13996253Y-14126388D01*
X13996253Y-14126388D02*
X13986729Y-14088293D01*
X13986729Y-14088293D02*
X13986729Y-14040674D01*
X13986729Y-14040674D02*
X13996253Y-14002579D01*
X13996253Y-14002579D02*
X14005777Y-13983531D01*
X14005777Y-13983531D02*
X14015301Y-13974008D01*
X14015301Y-13974008D02*
X14034348Y-13964484D01*
X14167682Y-13964484D02*
X14291491Y-13964484D01*
X14291491Y-13964484D02*
X14224825Y-14040674D01*
X14224825Y-14040674D02*
X14253396Y-14040674D01*
X14253396Y-14040674D02*
X14272444Y-14050198D01*
X14272444Y-14050198D02*
X14281967Y-14059722D01*
X14281967Y-14059722D02*
X14291491Y-14078769D01*
X14291491Y-14078769D02*
X14291491Y-14126388D01*
X14291491Y-14126388D02*
X14281967Y-14145436D01*
X14281967Y-14145436D02*
X14272444Y-14154960D01*
X14272444Y-14154960D02*
X14253396Y-14164484D01*
X14253396Y-14164484D02*
X14196253Y-14164484D01*
X14196253Y-14164484D02*
X14177206Y-14154960D01*
X14177206Y-14154960D02*
X14167682Y-14145436D01*
X14386729Y-14164484D02*
X14424825Y-14164484D01*
X14424825Y-14164484D02*
X14443872Y-14154960D01*
X14443872Y-14154960D02*
X14453396Y-14145436D01*
X14453396Y-14145436D02*
X14472444Y-14116865D01*
X14472444Y-14116865D02*
X14481967Y-14078769D01*
X14481967Y-14078769D02*
X14481967Y-14002579D01*
X14481967Y-14002579D02*
X14472444Y-13983531D01*
X14472444Y-13983531D02*
X14462920Y-13974008D01*
X14462920Y-13974008D02*
X14443872Y-13964484D01*
X14443872Y-13964484D02*
X14405777Y-13964484D01*
X14405777Y-13964484D02*
X14386729Y-13974008D01*
X14386729Y-13974008D02*
X14377206Y-13983531D01*
X14377206Y-13983531D02*
X14367682Y-14002579D01*
X14367682Y-14002579D02*
X14367682Y-14050198D01*
X14367682Y-14050198D02*
X14377206Y-14069246D01*
X14377206Y-14069246D02*
X14386729Y-14078769D01*
X14386729Y-14078769D02*
X14405777Y-14088293D01*
X14405777Y-14088293D02*
X14443872Y-14088293D01*
X14443872Y-14088293D02*
X14462920Y-14078769D01*
X14462920Y-14078769D02*
X14472444Y-14069246D01*
X14472444Y-14069246D02*
X14481967Y-14050198D01*
X14653396Y-14031150D02*
X14653396Y-14164484D01*
X14605777Y-13954960D02*
X14558158Y-14097817D01*
X14558158Y-14097817D02*
X14681967Y-14097817D01*
X14748634Y-13964484D02*
X14748634Y-14002579D01*
X14824825Y-13964484D02*
X14824825Y-14002579D01*
X15120063Y-14240674D02*
X15110539Y-14231150D01*
X15110539Y-14231150D02*
X15091491Y-14202579D01*
X15091491Y-14202579D02*
X15081968Y-14183531D01*
X15081968Y-14183531D02*
X15072444Y-14154960D01*
X15072444Y-14154960D02*
X15062920Y-14107341D01*
X15062920Y-14107341D02*
X15062920Y-14069246D01*
X15062920Y-14069246D02*
X15072444Y-14021627D01*
X15072444Y-14021627D02*
X15081968Y-13993055D01*
X15081968Y-13993055D02*
X15091491Y-13974008D01*
X15091491Y-13974008D02*
X15110539Y-13945436D01*
X15110539Y-13945436D02*
X15120063Y-13935912D01*
X15301015Y-14164484D02*
X15186729Y-14164484D01*
X15243872Y-14164484D02*
X15243872Y-13964484D01*
X15243872Y-13964484D02*
X15224825Y-13993055D01*
X15224825Y-13993055D02*
X15205777Y-14012103D01*
X15205777Y-14012103D02*
X15186729Y-14021627D01*
X15415301Y-14050198D02*
X15396253Y-14040674D01*
X15396253Y-14040674D02*
X15386729Y-14031150D01*
X15386729Y-14031150D02*
X15377206Y-14012103D01*
X15377206Y-14012103D02*
X15377206Y-14002579D01*
X15377206Y-14002579D02*
X15386729Y-13983531D01*
X15386729Y-13983531D02*
X15396253Y-13974008D01*
X15396253Y-13974008D02*
X15415301Y-13964484D01*
X15415301Y-13964484D02*
X15453396Y-13964484D01*
X15453396Y-13964484D02*
X15472444Y-13974008D01*
X15472444Y-13974008D02*
X15481968Y-13983531D01*
X15481968Y-13983531D02*
X15491491Y-14002579D01*
X15491491Y-14002579D02*
X15491491Y-14012103D01*
X15491491Y-14012103D02*
X15481968Y-14031150D01*
X15481968Y-14031150D02*
X15472444Y-14040674D01*
X15472444Y-14040674D02*
X15453396Y-14050198D01*
X15453396Y-14050198D02*
X15415301Y-14050198D01*
X15415301Y-14050198D02*
X15396253Y-14059722D01*
X15396253Y-14059722D02*
X15386729Y-14069246D01*
X15386729Y-14069246D02*
X15377206Y-14088293D01*
X15377206Y-14088293D02*
X15377206Y-14126388D01*
X15377206Y-14126388D02*
X15386729Y-14145436D01*
X15386729Y-14145436D02*
X15396253Y-14154960D01*
X15396253Y-14154960D02*
X15415301Y-14164484D01*
X15415301Y-14164484D02*
X15453396Y-14164484D01*
X15453396Y-14164484D02*
X15472444Y-14154960D01*
X15472444Y-14154960D02*
X15481968Y-14145436D01*
X15481968Y-14145436D02*
X15491491Y-14126388D01*
X15491491Y-14126388D02*
X15491491Y-14088293D01*
X15491491Y-14088293D02*
X15481968Y-14069246D01*
X15481968Y-14069246D02*
X15472444Y-14059722D01*
X15472444Y-14059722D02*
X15453396Y-14050198D01*
X15729587Y-14164484D02*
X15729587Y-13964484D01*
X15815301Y-14164484D02*
X15815301Y-14059722D01*
X15815301Y-14059722D02*
X15805777Y-14040674D01*
X15805777Y-14040674D02*
X15786730Y-14031150D01*
X15786730Y-14031150D02*
X15758158Y-14031150D01*
X15758158Y-14031150D02*
X15739110Y-14040674D01*
X15739110Y-14040674D02*
X15729587Y-14050198D01*
X15939110Y-14164484D02*
X15920063Y-14154960D01*
X15920063Y-14154960D02*
X15910539Y-14145436D01*
X15910539Y-14145436D02*
X15901015Y-14126388D01*
X15901015Y-14126388D02*
X15901015Y-14069246D01*
X15901015Y-14069246D02*
X15910539Y-14050198D01*
X15910539Y-14050198D02*
X15920063Y-14040674D01*
X15920063Y-14040674D02*
X15939110Y-14031150D01*
X15939110Y-14031150D02*
X15967682Y-14031150D01*
X15967682Y-14031150D02*
X15986730Y-14040674D01*
X15986730Y-14040674D02*
X15996253Y-14050198D01*
X15996253Y-14050198D02*
X16005777Y-14069246D01*
X16005777Y-14069246D02*
X16005777Y-14126388D01*
X16005777Y-14126388D02*
X15996253Y-14145436D01*
X15996253Y-14145436D02*
X15986730Y-14154960D01*
X15986730Y-14154960D02*
X15967682Y-14164484D01*
X15967682Y-14164484D02*
X15939110Y-14164484D01*
X16120063Y-14164484D02*
X16101015Y-14154960D01*
X16101015Y-14154960D02*
X16091491Y-14135912D01*
X16091491Y-14135912D02*
X16091491Y-13964484D01*
X16272444Y-14154960D02*
X16253396Y-14164484D01*
X16253396Y-14164484D02*
X16215301Y-14164484D01*
X16215301Y-14164484D02*
X16196253Y-14154960D01*
X16196253Y-14154960D02*
X16186730Y-14135912D01*
X16186730Y-14135912D02*
X16186730Y-14059722D01*
X16186730Y-14059722D02*
X16196253Y-14040674D01*
X16196253Y-14040674D02*
X16215301Y-14031150D01*
X16215301Y-14031150D02*
X16253396Y-14031150D01*
X16253396Y-14031150D02*
X16272444Y-14040674D01*
X16272444Y-14040674D02*
X16281968Y-14059722D01*
X16281968Y-14059722D02*
X16281968Y-14078769D01*
X16281968Y-14078769D02*
X16186730Y-14097817D01*
X16358158Y-14154960D02*
X16377206Y-14164484D01*
X16377206Y-14164484D02*
X16415301Y-14164484D01*
X16415301Y-14164484D02*
X16434349Y-14154960D01*
X16434349Y-14154960D02*
X16443872Y-14135912D01*
X16443872Y-14135912D02*
X16443872Y-14126388D01*
X16443872Y-14126388D02*
X16434349Y-14107341D01*
X16434349Y-14107341D02*
X16415301Y-14097817D01*
X16415301Y-14097817D02*
X16386730Y-14097817D01*
X16386730Y-14097817D02*
X16367682Y-14088293D01*
X16367682Y-14088293D02*
X16358158Y-14069246D01*
X16358158Y-14069246D02*
X16358158Y-14059722D01*
X16358158Y-14059722D02*
X16367682Y-14040674D01*
X16367682Y-14040674D02*
X16386730Y-14031150D01*
X16386730Y-14031150D02*
X16415301Y-14031150D01*
X16415301Y-14031150D02*
X16434349Y-14040674D01*
X16510539Y-14240674D02*
X16520063Y-14231150D01*
X16520063Y-14231150D02*
X16539111Y-14202579D01*
X16539111Y-14202579D02*
X16548634Y-14183531D01*
X16548634Y-14183531D02*
X16558158Y-14154960D01*
X16558158Y-14154960D02*
X16567682Y-14107341D01*
X16567682Y-14107341D02*
X16567682Y-14069246D01*
X16567682Y-14069246D02*
X16558158Y-14021627D01*
X16558158Y-14021627D02*
X16548634Y-13993055D01*
X16548634Y-13993055D02*
X16539111Y-13974008D01*
X16539111Y-13974008D02*
X16520063Y-13945436D01*
X16520063Y-13945436D02*
X16510539Y-13935912D01*
M02*
