%TF.GenerationSoftware,KiCad,Pcbnew,8.0.3*%
%TF.CreationDate,2024-07-19T12:36:33+08:00*%
%TF.ProjectId,NTC,4e54432e-6b69-4636-9164-5f7063625858,rev?*%
%TF.SameCoordinates,Original*%
%TF.FileFunction,Legend,Top*%
%TF.FilePolarity,Positive*%
%FSLAX45Y45*%
G04 Gerber Fmt 4.5, Leading zero omitted, Abs format (unit mm)*
G04 Created by KiCad (PCBNEW 8.0.3) date 2024-07-19 12:36:33*
%MOMM*%
%LPD*%
G01*
G04 APERTURE LIST*
%ADD10C,0.150000*%
%ADD11C,0.200000*%
%ADD12C,0.120000*%
G04 APERTURE END LIST*
D10*
X12228916Y-9135511D02*
X12233678Y-9130749D01*
X12233678Y-9130749D02*
X12243202Y-9125988D01*
X12243202Y-9125988D02*
X12267011Y-9125988D01*
X12267011Y-9125988D02*
X12276535Y-9130749D01*
X12276535Y-9130749D02*
X12281297Y-9135511D01*
X12281297Y-9135511D02*
X12286059Y-9145035D01*
X12286059Y-9145035D02*
X12286059Y-9154559D01*
X12286059Y-9154559D02*
X12281297Y-9168845D01*
X12281297Y-9168845D02*
X12224154Y-9225988D01*
X12224154Y-9225988D02*
X12286059Y-9225988D01*
X12381297Y-9225988D02*
X12324154Y-9225988D01*
X12352725Y-9225988D02*
X12352725Y-9125988D01*
X12352725Y-9125988D02*
X12343202Y-9140273D01*
X12343202Y-9140273D02*
X12333678Y-9149797D01*
X12333678Y-9149797D02*
X12324154Y-9154559D01*
X12471773Y-9125988D02*
X12424154Y-9125988D01*
X12424154Y-9125988D02*
X12419392Y-9173607D01*
X12419392Y-9173607D02*
X12424154Y-9168845D01*
X12424154Y-9168845D02*
X12433678Y-9164083D01*
X12433678Y-9164083D02*
X12457487Y-9164083D01*
X12457487Y-9164083D02*
X12467011Y-9168845D01*
X12467011Y-9168845D02*
X12471773Y-9173607D01*
X12471773Y-9173607D02*
X12476535Y-9183130D01*
X12476535Y-9183130D02*
X12476535Y-9206940D01*
X12476535Y-9206940D02*
X12471773Y-9216464D01*
X12471773Y-9216464D02*
X12467011Y-9221226D01*
X12467011Y-9221226D02*
X12457487Y-9225988D01*
X12457487Y-9225988D02*
X12433678Y-9225988D01*
X12433678Y-9225988D02*
X12424154Y-9221226D01*
X12424154Y-9221226D02*
X12419392Y-9216464D01*
X12571773Y-9225988D02*
X12514630Y-9225988D01*
X12543202Y-9225988D02*
X12543202Y-9125988D01*
X12543202Y-9125988D02*
X12533678Y-9140273D01*
X12533678Y-9140273D02*
X12524154Y-9149797D01*
X12524154Y-9149797D02*
X12514630Y-9154559D01*
X12619392Y-9225988D02*
X12638440Y-9225988D01*
X12638440Y-9225988D02*
X12647964Y-9221226D01*
X12647964Y-9221226D02*
X12652725Y-9216464D01*
X12652725Y-9216464D02*
X12662249Y-9202178D01*
X12662249Y-9202178D02*
X12667011Y-9183130D01*
X12667011Y-9183130D02*
X12667011Y-9145035D01*
X12667011Y-9145035D02*
X12662249Y-9135511D01*
X12662249Y-9135511D02*
X12657487Y-9130749D01*
X12657487Y-9130749D02*
X12647964Y-9125988D01*
X12647964Y-9125988D02*
X12628916Y-9125988D01*
X12628916Y-9125988D02*
X12619392Y-9130749D01*
X12619392Y-9130749D02*
X12614630Y-9135511D01*
X12614630Y-9135511D02*
X12609868Y-9145035D01*
X12609868Y-9145035D02*
X12609868Y-9168845D01*
X12609868Y-9168845D02*
X12614630Y-9178368D01*
X12614630Y-9178368D02*
X12619392Y-9183130D01*
X12619392Y-9183130D02*
X12628916Y-9187892D01*
X12628916Y-9187892D02*
X12647964Y-9187892D01*
X12647964Y-9187892D02*
X12657487Y-9183130D01*
X12657487Y-9183130D02*
X12662249Y-9178368D01*
X12662249Y-9178368D02*
X12667011Y-9168845D01*
X12700345Y-9125988D02*
X12762249Y-9125988D01*
X12762249Y-9125988D02*
X12728916Y-9164083D01*
X12728916Y-9164083D02*
X12743202Y-9164083D01*
X12743202Y-9164083D02*
X12752725Y-9168845D01*
X12752725Y-9168845D02*
X12757487Y-9173607D01*
X12757487Y-9173607D02*
X12762249Y-9183130D01*
X12762249Y-9183130D02*
X12762249Y-9206940D01*
X12762249Y-9206940D02*
X12757487Y-9216464D01*
X12757487Y-9216464D02*
X12752725Y-9221226D01*
X12752725Y-9221226D02*
X12743202Y-9225988D01*
X12743202Y-9225988D02*
X12714630Y-9225988D01*
X12714630Y-9225988D02*
X12705106Y-9221226D01*
X12705106Y-9221226D02*
X12700345Y-9216464D01*
X12847964Y-9125988D02*
X12828916Y-9125988D01*
X12828916Y-9125988D02*
X12819392Y-9130749D01*
X12819392Y-9130749D02*
X12814630Y-9135511D01*
X12814630Y-9135511D02*
X12805106Y-9149797D01*
X12805106Y-9149797D02*
X12800345Y-9168845D01*
X12800345Y-9168845D02*
X12800345Y-9206940D01*
X12800345Y-9206940D02*
X12805106Y-9216464D01*
X12805106Y-9216464D02*
X12809868Y-9221226D01*
X12809868Y-9221226D02*
X12819392Y-9225988D01*
X12819392Y-9225988D02*
X12838440Y-9225988D01*
X12838440Y-9225988D02*
X12847964Y-9221226D01*
X12847964Y-9221226D02*
X12852725Y-9216464D01*
X12852725Y-9216464D02*
X12857487Y-9206940D01*
X12857487Y-9206940D02*
X12857487Y-9183130D01*
X12857487Y-9183130D02*
X12852725Y-9173607D01*
X12852725Y-9173607D02*
X12847964Y-9168845D01*
X12847964Y-9168845D02*
X12838440Y-9164083D01*
X12838440Y-9164083D02*
X12819392Y-9164083D01*
X12819392Y-9164083D02*
X12809868Y-9168845D01*
X12809868Y-9168845D02*
X12805106Y-9173607D01*
X12805106Y-9173607D02*
X12800345Y-9183130D01*
X12224154Y-9386982D02*
X12276535Y-9320315D01*
X12224154Y-9320315D02*
X12276535Y-9386982D01*
X12357487Y-9320315D02*
X12357487Y-9386982D01*
X12314630Y-9320315D02*
X12314630Y-9372696D01*
X12314630Y-9372696D02*
X12319392Y-9382220D01*
X12319392Y-9382220D02*
X12328916Y-9386982D01*
X12328916Y-9386982D02*
X12343202Y-9386982D01*
X12343202Y-9386982D02*
X12352725Y-9382220D01*
X12352725Y-9382220D02*
X12357487Y-9377458D01*
X12443202Y-9382220D02*
X12433678Y-9386982D01*
X12433678Y-9386982D02*
X12414630Y-9386982D01*
X12414630Y-9386982D02*
X12405106Y-9382220D01*
X12405106Y-9382220D02*
X12400345Y-9372696D01*
X12400345Y-9372696D02*
X12400345Y-9334601D01*
X12400345Y-9334601D02*
X12405106Y-9325077D01*
X12405106Y-9325077D02*
X12414630Y-9320315D01*
X12414630Y-9320315D02*
X12433678Y-9320315D01*
X12433678Y-9320315D02*
X12443202Y-9325077D01*
X12443202Y-9325077D02*
X12447964Y-9334601D01*
X12447964Y-9334601D02*
X12447964Y-9344125D01*
X12447964Y-9344125D02*
X12400345Y-9353649D01*
X12490821Y-9320315D02*
X12490821Y-9406030D01*
X12490821Y-9406030D02*
X12486059Y-9415553D01*
X12486059Y-9415553D02*
X12476535Y-9420315D01*
X12476535Y-9420315D02*
X12471773Y-9420315D01*
X12490821Y-9286982D02*
X12486059Y-9291744D01*
X12486059Y-9291744D02*
X12490821Y-9296506D01*
X12490821Y-9296506D02*
X12495583Y-9291744D01*
X12495583Y-9291744D02*
X12490821Y-9286982D01*
X12490821Y-9286982D02*
X12490821Y-9296506D01*
X12581297Y-9320315D02*
X12581297Y-9386982D01*
X12538440Y-9320315D02*
X12538440Y-9372696D01*
X12538440Y-9372696D02*
X12543202Y-9382220D01*
X12543202Y-9382220D02*
X12552725Y-9386982D01*
X12552725Y-9386982D02*
X12567011Y-9386982D01*
X12567011Y-9386982D02*
X12576535Y-9382220D01*
X12576535Y-9382220D02*
X12581297Y-9377458D01*
X12628916Y-9320315D02*
X12628916Y-9386982D01*
X12628916Y-9329839D02*
X12633678Y-9325077D01*
X12633678Y-9325077D02*
X12643202Y-9320315D01*
X12643202Y-9320315D02*
X12657487Y-9320315D01*
X12657487Y-9320315D02*
X12667011Y-9325077D01*
X12667011Y-9325077D02*
X12671773Y-9334601D01*
X12671773Y-9334601D02*
X12671773Y-9386982D01*
D11*
X17489348Y-9641484D02*
X17479824Y-9636722D01*
X17479824Y-9636722D02*
X17465539Y-9636722D01*
X17465539Y-9636722D02*
X17451253Y-9641484D01*
X17451253Y-9641484D02*
X17441729Y-9651008D01*
X17441729Y-9651008D02*
X17436967Y-9660531D01*
X17436967Y-9660531D02*
X17432205Y-9679579D01*
X17432205Y-9679579D02*
X17432205Y-9693865D01*
X17432205Y-9693865D02*
X17436967Y-9712912D01*
X17436967Y-9712912D02*
X17441729Y-9722436D01*
X17441729Y-9722436D02*
X17451253Y-9731960D01*
X17451253Y-9731960D02*
X17465539Y-9736722D01*
X17465539Y-9736722D02*
X17475063Y-9736722D01*
X17475063Y-9736722D02*
X17489348Y-9731960D01*
X17489348Y-9731960D02*
X17494110Y-9727198D01*
X17494110Y-9727198D02*
X17494110Y-9693865D01*
X17494110Y-9693865D02*
X17475063Y-9693865D01*
X17536967Y-9736722D02*
X17536967Y-9636722D01*
X17536967Y-9636722D02*
X17594110Y-9736722D01*
X17594110Y-9736722D02*
X17594110Y-9636722D01*
X17641729Y-9736722D02*
X17641729Y-9636722D01*
X17641729Y-9636722D02*
X17665539Y-9636722D01*
X17665539Y-9636722D02*
X17679824Y-9641484D01*
X17679824Y-9641484D02*
X17689348Y-9651008D01*
X17689348Y-9651008D02*
X17694110Y-9660531D01*
X17694110Y-9660531D02*
X17698872Y-9679579D01*
X17698872Y-9679579D02*
X17698872Y-9693865D01*
X17698872Y-9693865D02*
X17694110Y-9712912D01*
X17694110Y-9712912D02*
X17689348Y-9722436D01*
X17689348Y-9722436D02*
X17679824Y-9731960D01*
X17679824Y-9731960D02*
X17665539Y-9736722D01*
X17665539Y-9736722D02*
X17641729Y-9736722D01*
X17432205Y-10281960D02*
X17446491Y-10286722D01*
X17446491Y-10286722D02*
X17470301Y-10286722D01*
X17470301Y-10286722D02*
X17479824Y-10281960D01*
X17479824Y-10281960D02*
X17484586Y-10277198D01*
X17484586Y-10277198D02*
X17489348Y-10267674D01*
X17489348Y-10267674D02*
X17489348Y-10258150D01*
X17489348Y-10258150D02*
X17484586Y-10248627D01*
X17484586Y-10248627D02*
X17479824Y-10243865D01*
X17479824Y-10243865D02*
X17470301Y-10239103D01*
X17470301Y-10239103D02*
X17451253Y-10234341D01*
X17451253Y-10234341D02*
X17441729Y-10229579D01*
X17441729Y-10229579D02*
X17436967Y-10224817D01*
X17436967Y-10224817D02*
X17432205Y-10215293D01*
X17432205Y-10215293D02*
X17432205Y-10205770D01*
X17432205Y-10205770D02*
X17436967Y-10196246D01*
X17436967Y-10196246D02*
X17441729Y-10191484D01*
X17441729Y-10191484D02*
X17451253Y-10186722D01*
X17451253Y-10186722D02*
X17475063Y-10186722D01*
X17475063Y-10186722D02*
X17489348Y-10191484D01*
X17522682Y-10186722D02*
X17546491Y-10286722D01*
X17546491Y-10286722D02*
X17565539Y-10215293D01*
X17565539Y-10215293D02*
X17584586Y-10286722D01*
X17584586Y-10286722D02*
X17608396Y-10186722D01*
X17646491Y-10286722D02*
X17646491Y-10186722D01*
X17646491Y-10186722D02*
X17670301Y-10186722D01*
X17670301Y-10186722D02*
X17684586Y-10191484D01*
X17684586Y-10191484D02*
X17694110Y-10201008D01*
X17694110Y-10201008D02*
X17698872Y-10210531D01*
X17698872Y-10210531D02*
X17703634Y-10229579D01*
X17703634Y-10229579D02*
X17703634Y-10243865D01*
X17703634Y-10243865D02*
X17698872Y-10262912D01*
X17698872Y-10262912D02*
X17694110Y-10272436D01*
X17694110Y-10272436D02*
X17684586Y-10281960D01*
X17684586Y-10281960D02*
X17670301Y-10286722D01*
X17670301Y-10286722D02*
X17646491Y-10286722D01*
X17746491Y-10286722D02*
X17746491Y-10186722D01*
X17813158Y-10186722D02*
X17832205Y-10186722D01*
X17832205Y-10186722D02*
X17841729Y-10191484D01*
X17841729Y-10191484D02*
X17851253Y-10201008D01*
X17851253Y-10201008D02*
X17856015Y-10220055D01*
X17856015Y-10220055D02*
X17856015Y-10253389D01*
X17856015Y-10253389D02*
X17851253Y-10272436D01*
X17851253Y-10272436D02*
X17841729Y-10281960D01*
X17841729Y-10281960D02*
X17832205Y-10286722D01*
X17832205Y-10286722D02*
X17813158Y-10286722D01*
X17813158Y-10286722D02*
X17803634Y-10281960D01*
X17803634Y-10281960D02*
X17794110Y-10272436D01*
X17794110Y-10272436D02*
X17789348Y-10253389D01*
X17789348Y-10253389D02*
X17789348Y-10220055D01*
X17789348Y-10220055D02*
X17794110Y-10201008D01*
X17794110Y-10201008D02*
X17803634Y-10191484D01*
X17803634Y-10191484D02*
X17813158Y-10186722D01*
X17422682Y-10436722D02*
X17456015Y-10536722D01*
X17456015Y-10536722D02*
X17489348Y-10436722D01*
X17522682Y-10536722D02*
X17522682Y-10436722D01*
X17522682Y-10436722D02*
X17546491Y-10436722D01*
X17546491Y-10436722D02*
X17560777Y-10441484D01*
X17560777Y-10441484D02*
X17570301Y-10451008D01*
X17570301Y-10451008D02*
X17575063Y-10460531D01*
X17575063Y-10460531D02*
X17579824Y-10479579D01*
X17579824Y-10479579D02*
X17579824Y-10493865D01*
X17579824Y-10493865D02*
X17575063Y-10512912D01*
X17575063Y-10512912D02*
X17570301Y-10522436D01*
X17570301Y-10522436D02*
X17560777Y-10531960D01*
X17560777Y-10531960D02*
X17546491Y-10536722D01*
X17546491Y-10536722D02*
X17522682Y-10536722D01*
X17622682Y-10536722D02*
X17622682Y-10436722D01*
X17622682Y-10436722D02*
X17646491Y-10436722D01*
X17646491Y-10436722D02*
X17660777Y-10441484D01*
X17660777Y-10441484D02*
X17670301Y-10451008D01*
X17670301Y-10451008D02*
X17675063Y-10460531D01*
X17675063Y-10460531D02*
X17679824Y-10479579D01*
X17679824Y-10479579D02*
X17679824Y-10493865D01*
X17679824Y-10493865D02*
X17675063Y-10512912D01*
X17675063Y-10512912D02*
X17670301Y-10522436D01*
X17670301Y-10522436D02*
X17660777Y-10531960D01*
X17660777Y-10531960D02*
X17646491Y-10536722D01*
X17646491Y-10536722D02*
X17622682Y-10536722D01*
X17432205Y-10031960D02*
X17446491Y-10036722D01*
X17446491Y-10036722D02*
X17470301Y-10036722D01*
X17470301Y-10036722D02*
X17479824Y-10031960D01*
X17479824Y-10031960D02*
X17484586Y-10027198D01*
X17484586Y-10027198D02*
X17489348Y-10017674D01*
X17489348Y-10017674D02*
X17489348Y-10008150D01*
X17489348Y-10008150D02*
X17484586Y-9998627D01*
X17484586Y-9998627D02*
X17479824Y-9993865D01*
X17479824Y-9993865D02*
X17470301Y-9989103D01*
X17470301Y-9989103D02*
X17451253Y-9984341D01*
X17451253Y-9984341D02*
X17441729Y-9979579D01*
X17441729Y-9979579D02*
X17436967Y-9974817D01*
X17436967Y-9974817D02*
X17432205Y-9965293D01*
X17432205Y-9965293D02*
X17432205Y-9955770D01*
X17432205Y-9955770D02*
X17436967Y-9946246D01*
X17436967Y-9946246D02*
X17441729Y-9941484D01*
X17441729Y-9941484D02*
X17451253Y-9936722D01*
X17451253Y-9936722D02*
X17475063Y-9936722D01*
X17475063Y-9936722D02*
X17489348Y-9941484D01*
X17522682Y-9936722D02*
X17546491Y-10036722D01*
X17546491Y-10036722D02*
X17565539Y-9965293D01*
X17565539Y-9965293D02*
X17584586Y-10036722D01*
X17584586Y-10036722D02*
X17608396Y-9936722D01*
X17703634Y-10027198D02*
X17698872Y-10031960D01*
X17698872Y-10031960D02*
X17684586Y-10036722D01*
X17684586Y-10036722D02*
X17675063Y-10036722D01*
X17675063Y-10036722D02*
X17660777Y-10031960D01*
X17660777Y-10031960D02*
X17651253Y-10022436D01*
X17651253Y-10022436D02*
X17646491Y-10012912D01*
X17646491Y-10012912D02*
X17641729Y-9993865D01*
X17641729Y-9993865D02*
X17641729Y-9979579D01*
X17641729Y-9979579D02*
X17646491Y-9960531D01*
X17646491Y-9960531D02*
X17651253Y-9951008D01*
X17651253Y-9951008D02*
X17660777Y-9941484D01*
X17660777Y-9941484D02*
X17675063Y-9936722D01*
X17675063Y-9936722D02*
X17684586Y-9936722D01*
X17684586Y-9936722D02*
X17698872Y-9941484D01*
X17698872Y-9941484D02*
X17703634Y-9946246D01*
X17794110Y-10036722D02*
X17746491Y-10036722D01*
X17746491Y-10036722D02*
X17746491Y-9936722D01*
X17827444Y-10036722D02*
X17827444Y-9936722D01*
X17884586Y-10036722D02*
X17841729Y-9979579D01*
X17884586Y-9936722D02*
X17827444Y-9993865D01*
D10*
X14083333Y-10685958D02*
X14078571Y-10690720D01*
X14078571Y-10690720D02*
X14064286Y-10695482D01*
X14064286Y-10695482D02*
X14054762Y-10695482D01*
X14054762Y-10695482D02*
X14040476Y-10690720D01*
X14040476Y-10690720D02*
X14030952Y-10681196D01*
X14030952Y-10681196D02*
X14026190Y-10671672D01*
X14026190Y-10671672D02*
X14021429Y-10652625D01*
X14021429Y-10652625D02*
X14021429Y-10638339D01*
X14021429Y-10638339D02*
X14026190Y-10619291D01*
X14026190Y-10619291D02*
X14030952Y-10609768D01*
X14030952Y-10609768D02*
X14040476Y-10600244D01*
X14040476Y-10600244D02*
X14054762Y-10595482D01*
X14054762Y-10595482D02*
X14064286Y-10595482D01*
X14064286Y-10595482D02*
X14078571Y-10600244D01*
X14078571Y-10600244D02*
X14083333Y-10605006D01*
X14169048Y-10595482D02*
X14150000Y-10595482D01*
X14150000Y-10595482D02*
X14140476Y-10600244D01*
X14140476Y-10600244D02*
X14135714Y-10605006D01*
X14135714Y-10605006D02*
X14126190Y-10619291D01*
X14126190Y-10619291D02*
X14121429Y-10638339D01*
X14121429Y-10638339D02*
X14121429Y-10676434D01*
X14121429Y-10676434D02*
X14126190Y-10685958D01*
X14126190Y-10685958D02*
X14130952Y-10690720D01*
X14130952Y-10690720D02*
X14140476Y-10695482D01*
X14140476Y-10695482D02*
X14159524Y-10695482D01*
X14159524Y-10695482D02*
X14169048Y-10690720D01*
X14169048Y-10690720D02*
X14173809Y-10685958D01*
X14173809Y-10685958D02*
X14178571Y-10676434D01*
X14178571Y-10676434D02*
X14178571Y-10652625D01*
X14178571Y-10652625D02*
X14173809Y-10643101D01*
X14173809Y-10643101D02*
X14169048Y-10638339D01*
X14169048Y-10638339D02*
X14159524Y-10633577D01*
X14159524Y-10633577D02*
X14140476Y-10633577D01*
X14140476Y-10633577D02*
X14130952Y-10638339D01*
X14130952Y-10638339D02*
X14126190Y-10643101D01*
X14126190Y-10643101D02*
X14121429Y-10652625D01*
X14583333Y-12145482D02*
X14550000Y-12097863D01*
X14526190Y-12145482D02*
X14526190Y-12045482D01*
X14526190Y-12045482D02*
X14564286Y-12045482D01*
X14564286Y-12045482D02*
X14573809Y-12050244D01*
X14573809Y-12050244D02*
X14578571Y-12055006D01*
X14578571Y-12055006D02*
X14583333Y-12064529D01*
X14583333Y-12064529D02*
X14583333Y-12078815D01*
X14583333Y-12078815D02*
X14578571Y-12088339D01*
X14578571Y-12088339D02*
X14573809Y-12093101D01*
X14573809Y-12093101D02*
X14564286Y-12097863D01*
X14564286Y-12097863D02*
X14526190Y-12097863D01*
X14669048Y-12045482D02*
X14650000Y-12045482D01*
X14650000Y-12045482D02*
X14640476Y-12050244D01*
X14640476Y-12050244D02*
X14635714Y-12055006D01*
X14635714Y-12055006D02*
X14626190Y-12069291D01*
X14626190Y-12069291D02*
X14621429Y-12088339D01*
X14621429Y-12088339D02*
X14621429Y-12126434D01*
X14621429Y-12126434D02*
X14626190Y-12135958D01*
X14626190Y-12135958D02*
X14630952Y-12140720D01*
X14630952Y-12140720D02*
X14640476Y-12145482D01*
X14640476Y-12145482D02*
X14659524Y-12145482D01*
X14659524Y-12145482D02*
X14669048Y-12140720D01*
X14669048Y-12140720D02*
X14673809Y-12135958D01*
X14673809Y-12135958D02*
X14678571Y-12126434D01*
X14678571Y-12126434D02*
X14678571Y-12102625D01*
X14678571Y-12102625D02*
X14673809Y-12093101D01*
X14673809Y-12093101D02*
X14669048Y-12088339D01*
X14669048Y-12088339D02*
X14659524Y-12083577D01*
X14659524Y-12083577D02*
X14640476Y-12083577D01*
X14640476Y-12083577D02*
X14630952Y-12088339D01*
X14630952Y-12088339D02*
X14626190Y-12093101D01*
X14626190Y-12093101D02*
X14621429Y-12102625D01*
X16885714Y-11885958D02*
X16880952Y-11890720D01*
X16880952Y-11890720D02*
X16866667Y-11895482D01*
X16866667Y-11895482D02*
X16857143Y-11895482D01*
X16857143Y-11895482D02*
X16842857Y-11890720D01*
X16842857Y-11890720D02*
X16833333Y-11881196D01*
X16833333Y-11881196D02*
X16828571Y-11871672D01*
X16828571Y-11871672D02*
X16823810Y-11852625D01*
X16823810Y-11852625D02*
X16823810Y-11838339D01*
X16823810Y-11838339D02*
X16828571Y-11819291D01*
X16828571Y-11819291D02*
X16833333Y-11809768D01*
X16833333Y-11809768D02*
X16842857Y-11800244D01*
X16842857Y-11800244D02*
X16857143Y-11795482D01*
X16857143Y-11795482D02*
X16866667Y-11795482D01*
X16866667Y-11795482D02*
X16880952Y-11800244D01*
X16880952Y-11800244D02*
X16885714Y-11805006D01*
X16980952Y-11895482D02*
X16923810Y-11895482D01*
X16952381Y-11895482D02*
X16952381Y-11795482D01*
X16952381Y-11795482D02*
X16942857Y-11809768D01*
X16942857Y-11809768D02*
X16933333Y-11819291D01*
X16933333Y-11819291D02*
X16923810Y-11824053D01*
X17042857Y-11795482D02*
X17052381Y-11795482D01*
X17052381Y-11795482D02*
X17061905Y-11800244D01*
X17061905Y-11800244D02*
X17066667Y-11805006D01*
X17066667Y-11805006D02*
X17071429Y-11814529D01*
X17071429Y-11814529D02*
X17076190Y-11833577D01*
X17076190Y-11833577D02*
X17076190Y-11857387D01*
X17076190Y-11857387D02*
X17071429Y-11876434D01*
X17071429Y-11876434D02*
X17066667Y-11885958D01*
X17066667Y-11885958D02*
X17061905Y-11890720D01*
X17061905Y-11890720D02*
X17052381Y-11895482D01*
X17052381Y-11895482D02*
X17042857Y-11895482D01*
X17042857Y-11895482D02*
X17033333Y-11890720D01*
X17033333Y-11890720D02*
X17028571Y-11885958D01*
X17028571Y-11885958D02*
X17023810Y-11876434D01*
X17023810Y-11876434D02*
X17019048Y-11857387D01*
X17019048Y-11857387D02*
X17019048Y-11833577D01*
X17019048Y-11833577D02*
X17023810Y-11814529D01*
X17023810Y-11814529D02*
X17028571Y-11805006D01*
X17028571Y-11805006D02*
X17033333Y-11800244D01*
X17033333Y-11800244D02*
X17042857Y-11795482D01*
X13783333Y-9685958D02*
X13778571Y-9690720D01*
X13778571Y-9690720D02*
X13764286Y-9695482D01*
X13764286Y-9695482D02*
X13754762Y-9695482D01*
X13754762Y-9695482D02*
X13740476Y-9690720D01*
X13740476Y-9690720D02*
X13730952Y-9681196D01*
X13730952Y-9681196D02*
X13726190Y-9671672D01*
X13726190Y-9671672D02*
X13721429Y-9652625D01*
X13721429Y-9652625D02*
X13721429Y-9638339D01*
X13721429Y-9638339D02*
X13726190Y-9619291D01*
X13726190Y-9619291D02*
X13730952Y-9609768D01*
X13730952Y-9609768D02*
X13740476Y-9600244D01*
X13740476Y-9600244D02*
X13754762Y-9595482D01*
X13754762Y-9595482D02*
X13764286Y-9595482D01*
X13764286Y-9595482D02*
X13778571Y-9600244D01*
X13778571Y-9600244D02*
X13783333Y-9605006D01*
X13869048Y-9628815D02*
X13869048Y-9695482D01*
X13845238Y-9590720D02*
X13821429Y-9662149D01*
X13821429Y-9662149D02*
X13883333Y-9662149D01*
X17166667Y-10658482D02*
X17166667Y-10729910D01*
X17166667Y-10729910D02*
X17161905Y-10744196D01*
X17161905Y-10744196D02*
X17152381Y-10753720D01*
X17152381Y-10753720D02*
X17138095Y-10758482D01*
X17138095Y-10758482D02*
X17128571Y-10758482D01*
X17266667Y-10758482D02*
X17209524Y-10758482D01*
X17238095Y-10758482D02*
X17238095Y-10658482D01*
X17238095Y-10658482D02*
X17228571Y-10672768D01*
X17228571Y-10672768D02*
X17219048Y-10682291D01*
X17219048Y-10682291D02*
X17209524Y-10687053D01*
X15390476Y-8305006D02*
X15380952Y-8300244D01*
X15380952Y-8300244D02*
X15371428Y-8290720D01*
X15371428Y-8290720D02*
X15357143Y-8276434D01*
X15357143Y-8276434D02*
X15347619Y-8271672D01*
X15347619Y-8271672D02*
X15338095Y-8271672D01*
X15342857Y-8295482D02*
X15333333Y-8290720D01*
X15333333Y-8290720D02*
X15323809Y-8281196D01*
X15323809Y-8281196D02*
X15319048Y-8262148D01*
X15319048Y-8262148D02*
X15319048Y-8228815D01*
X15319048Y-8228815D02*
X15323809Y-8209768D01*
X15323809Y-8209768D02*
X15333333Y-8200244D01*
X15333333Y-8200244D02*
X15342857Y-8195482D01*
X15342857Y-8195482D02*
X15361905Y-8195482D01*
X15361905Y-8195482D02*
X15371428Y-8200244D01*
X15371428Y-8200244D02*
X15380952Y-8209768D01*
X15380952Y-8209768D02*
X15385714Y-8228815D01*
X15385714Y-8228815D02*
X15385714Y-8262148D01*
X15385714Y-8262148D02*
X15380952Y-8281196D01*
X15380952Y-8281196D02*
X15371428Y-8290720D01*
X15371428Y-8290720D02*
X15361905Y-8295482D01*
X15361905Y-8295482D02*
X15342857Y-8295482D01*
X15419048Y-8195482D02*
X15480952Y-8195482D01*
X15480952Y-8195482D02*
X15447619Y-8233577D01*
X15447619Y-8233577D02*
X15461905Y-8233577D01*
X15461905Y-8233577D02*
X15471428Y-8238339D01*
X15471428Y-8238339D02*
X15476190Y-8243101D01*
X15476190Y-8243101D02*
X15480952Y-8252625D01*
X15480952Y-8252625D02*
X15480952Y-8276434D01*
X15480952Y-8276434D02*
X15476190Y-8285958D01*
X15476190Y-8285958D02*
X15471428Y-8290720D01*
X15471428Y-8290720D02*
X15461905Y-8295482D01*
X15461905Y-8295482D02*
X15433333Y-8295482D01*
X15433333Y-8295482D02*
X15423809Y-8290720D01*
X15423809Y-8290720D02*
X15419048Y-8285958D01*
X15880476Y-8305006D02*
X15870952Y-8300244D01*
X15870952Y-8300244D02*
X15861428Y-8290720D01*
X15861428Y-8290720D02*
X15847143Y-8276434D01*
X15847143Y-8276434D02*
X15837619Y-8271672D01*
X15837619Y-8271672D02*
X15828095Y-8271672D01*
X15832857Y-8295482D02*
X15823333Y-8290720D01*
X15823333Y-8290720D02*
X15813809Y-8281196D01*
X15813809Y-8281196D02*
X15809048Y-8262148D01*
X15809048Y-8262148D02*
X15809048Y-8228815D01*
X15809048Y-8228815D02*
X15813809Y-8209768D01*
X15813809Y-8209768D02*
X15823333Y-8200244D01*
X15823333Y-8200244D02*
X15832857Y-8195482D01*
X15832857Y-8195482D02*
X15851905Y-8195482D01*
X15851905Y-8195482D02*
X15861428Y-8200244D01*
X15861428Y-8200244D02*
X15870952Y-8209768D01*
X15870952Y-8209768D02*
X15875714Y-8228815D01*
X15875714Y-8228815D02*
X15875714Y-8262148D01*
X15875714Y-8262148D02*
X15870952Y-8281196D01*
X15870952Y-8281196D02*
X15861428Y-8290720D01*
X15861428Y-8290720D02*
X15851905Y-8295482D01*
X15851905Y-8295482D02*
X15832857Y-8295482D01*
X15913809Y-8205006D02*
X15918571Y-8200244D01*
X15918571Y-8200244D02*
X15928095Y-8195482D01*
X15928095Y-8195482D02*
X15951905Y-8195482D01*
X15951905Y-8195482D02*
X15961428Y-8200244D01*
X15961428Y-8200244D02*
X15966190Y-8205006D01*
X15966190Y-8205006D02*
X15970952Y-8214529D01*
X15970952Y-8214529D02*
X15970952Y-8224053D01*
X15970952Y-8224053D02*
X15966190Y-8238339D01*
X15966190Y-8238339D02*
X15909048Y-8295482D01*
X15909048Y-8295482D02*
X15970952Y-8295482D01*
X15583333Y-12485958D02*
X15578571Y-12490720D01*
X15578571Y-12490720D02*
X15564286Y-12495482D01*
X15564286Y-12495482D02*
X15554762Y-12495482D01*
X15554762Y-12495482D02*
X15540476Y-12490720D01*
X15540476Y-12490720D02*
X15530952Y-12481196D01*
X15530952Y-12481196D02*
X15526190Y-12471672D01*
X15526190Y-12471672D02*
X15521429Y-12452625D01*
X15521429Y-12452625D02*
X15521429Y-12438339D01*
X15521429Y-12438339D02*
X15526190Y-12419291D01*
X15526190Y-12419291D02*
X15530952Y-12409768D01*
X15530952Y-12409768D02*
X15540476Y-12400244D01*
X15540476Y-12400244D02*
X15554762Y-12395482D01*
X15554762Y-12395482D02*
X15564286Y-12395482D01*
X15564286Y-12395482D02*
X15578571Y-12400244D01*
X15578571Y-12400244D02*
X15583333Y-12405006D01*
X15630952Y-12495482D02*
X15650000Y-12495482D01*
X15650000Y-12495482D02*
X15659524Y-12490720D01*
X15659524Y-12490720D02*
X15664286Y-12485958D01*
X15664286Y-12485958D02*
X15673809Y-12471672D01*
X15673809Y-12471672D02*
X15678571Y-12452625D01*
X15678571Y-12452625D02*
X15678571Y-12414529D01*
X15678571Y-12414529D02*
X15673809Y-12405006D01*
X15673809Y-12405006D02*
X15669048Y-12400244D01*
X15669048Y-12400244D02*
X15659524Y-12395482D01*
X15659524Y-12395482D02*
X15640476Y-12395482D01*
X15640476Y-12395482D02*
X15630952Y-12400244D01*
X15630952Y-12400244D02*
X15626190Y-12405006D01*
X15626190Y-12405006D02*
X15621429Y-12414529D01*
X15621429Y-12414529D02*
X15621429Y-12438339D01*
X15621429Y-12438339D02*
X15626190Y-12447863D01*
X15626190Y-12447863D02*
X15630952Y-12452625D01*
X15630952Y-12452625D02*
X15640476Y-12457387D01*
X15640476Y-12457387D02*
X15659524Y-12457387D01*
X15659524Y-12457387D02*
X15669048Y-12452625D01*
X15669048Y-12452625D02*
X15673809Y-12447863D01*
X15673809Y-12447863D02*
X15678571Y-12438339D01*
X13785714Y-8295482D02*
X13752381Y-8247863D01*
X13728571Y-8295482D02*
X13728571Y-8195482D01*
X13728571Y-8195482D02*
X13766667Y-8195482D01*
X13766667Y-8195482D02*
X13776190Y-8200244D01*
X13776190Y-8200244D02*
X13780952Y-8205006D01*
X13780952Y-8205006D02*
X13785714Y-8214529D01*
X13785714Y-8214529D02*
X13785714Y-8228815D01*
X13785714Y-8228815D02*
X13780952Y-8238339D01*
X13780952Y-8238339D02*
X13776190Y-8243101D01*
X13776190Y-8243101D02*
X13766667Y-8247863D01*
X13766667Y-8247863D02*
X13728571Y-8247863D01*
X13880952Y-8295482D02*
X13823809Y-8295482D01*
X13852381Y-8295482D02*
X13852381Y-8195482D01*
X13852381Y-8195482D02*
X13842857Y-8209768D01*
X13842857Y-8209768D02*
X13833333Y-8219291D01*
X13833333Y-8219291D02*
X13823809Y-8224053D01*
X13971428Y-8195482D02*
X13923809Y-8195482D01*
X13923809Y-8195482D02*
X13919048Y-8243101D01*
X13919048Y-8243101D02*
X13923809Y-8238339D01*
X13923809Y-8238339D02*
X13933333Y-8233577D01*
X13933333Y-8233577D02*
X13957143Y-8233577D01*
X13957143Y-8233577D02*
X13966667Y-8238339D01*
X13966667Y-8238339D02*
X13971428Y-8243101D01*
X13971428Y-8243101D02*
X13976190Y-8252625D01*
X13976190Y-8252625D02*
X13976190Y-8276434D01*
X13976190Y-8276434D02*
X13971428Y-8285958D01*
X13971428Y-8285958D02*
X13966667Y-8290720D01*
X13966667Y-8290720D02*
X13957143Y-8295482D01*
X13957143Y-8295482D02*
X13933333Y-8295482D01*
X13933333Y-8295482D02*
X13923809Y-8290720D01*
X13923809Y-8290720D02*
X13919048Y-8285958D01*
X16275714Y-8701732D02*
X16242381Y-8654113D01*
X16218571Y-8701732D02*
X16218571Y-8601732D01*
X16218571Y-8601732D02*
X16256667Y-8601732D01*
X16256667Y-8601732D02*
X16266190Y-8606494D01*
X16266190Y-8606494D02*
X16270952Y-8611256D01*
X16270952Y-8611256D02*
X16275714Y-8620780D01*
X16275714Y-8620780D02*
X16275714Y-8635065D01*
X16275714Y-8635065D02*
X16270952Y-8644589D01*
X16270952Y-8644589D02*
X16266190Y-8649351D01*
X16266190Y-8649351D02*
X16256667Y-8654113D01*
X16256667Y-8654113D02*
X16218571Y-8654113D01*
X16370952Y-8701732D02*
X16313809Y-8701732D01*
X16342381Y-8701732D02*
X16342381Y-8601732D01*
X16342381Y-8601732D02*
X16332857Y-8616018D01*
X16332857Y-8616018D02*
X16323333Y-8625541D01*
X16323333Y-8625541D02*
X16313809Y-8630303D01*
X16404286Y-8601732D02*
X16470952Y-8601732D01*
X16470952Y-8601732D02*
X16428095Y-8701732D01*
X12257809Y-7183232D02*
X12257809Y-7264184D01*
X12257809Y-7264184D02*
X12262571Y-7273708D01*
X12262571Y-7273708D02*
X12267333Y-7278470D01*
X12267333Y-7278470D02*
X12276857Y-7283232D01*
X12276857Y-7283232D02*
X12295905Y-7283232D01*
X12295905Y-7283232D02*
X12305428Y-7278470D01*
X12305428Y-7278470D02*
X12310190Y-7273708D01*
X12310190Y-7273708D02*
X12314952Y-7264184D01*
X12314952Y-7264184D02*
X12314952Y-7183232D01*
X12357809Y-7192756D02*
X12362571Y-7187994D01*
X12362571Y-7187994D02*
X12372095Y-7183232D01*
X12372095Y-7183232D02*
X12395905Y-7183232D01*
X12395905Y-7183232D02*
X12405428Y-7187994D01*
X12405428Y-7187994D02*
X12410190Y-7192756D01*
X12410190Y-7192756D02*
X12414952Y-7202279D01*
X12414952Y-7202279D02*
X12414952Y-7211803D01*
X12414952Y-7211803D02*
X12410190Y-7226089D01*
X12410190Y-7226089D02*
X12353048Y-7283232D01*
X12353048Y-7283232D02*
X12414952Y-7283232D01*
X14383333Y-12395482D02*
X14350000Y-12347863D01*
X14326190Y-12395482D02*
X14326190Y-12295482D01*
X14326190Y-12295482D02*
X14364286Y-12295482D01*
X14364286Y-12295482D02*
X14373809Y-12300244D01*
X14373809Y-12300244D02*
X14378571Y-12305006D01*
X14378571Y-12305006D02*
X14383333Y-12314529D01*
X14383333Y-12314529D02*
X14383333Y-12328815D01*
X14383333Y-12328815D02*
X14378571Y-12338339D01*
X14378571Y-12338339D02*
X14373809Y-12343101D01*
X14373809Y-12343101D02*
X14364286Y-12347863D01*
X14364286Y-12347863D02*
X14326190Y-12347863D01*
X14473809Y-12295482D02*
X14426190Y-12295482D01*
X14426190Y-12295482D02*
X14421429Y-12343101D01*
X14421429Y-12343101D02*
X14426190Y-12338339D01*
X14426190Y-12338339D02*
X14435714Y-12333577D01*
X14435714Y-12333577D02*
X14459524Y-12333577D01*
X14459524Y-12333577D02*
X14469048Y-12338339D01*
X14469048Y-12338339D02*
X14473809Y-12343101D01*
X14473809Y-12343101D02*
X14478571Y-12352625D01*
X14478571Y-12352625D02*
X14478571Y-12376434D01*
X14478571Y-12376434D02*
X14473809Y-12385958D01*
X14473809Y-12385958D02*
X14469048Y-12390720D01*
X14469048Y-12390720D02*
X14459524Y-12395482D01*
X14459524Y-12395482D02*
X14435714Y-12395482D01*
X14435714Y-12395482D02*
X14426190Y-12390720D01*
X14426190Y-12390720D02*
X14421429Y-12385958D01*
X14685714Y-8295482D02*
X14652381Y-8247863D01*
X14628571Y-8295482D02*
X14628571Y-8195482D01*
X14628571Y-8195482D02*
X14666667Y-8195482D01*
X14666667Y-8195482D02*
X14676190Y-8200244D01*
X14676190Y-8200244D02*
X14680952Y-8205006D01*
X14680952Y-8205006D02*
X14685714Y-8214529D01*
X14685714Y-8214529D02*
X14685714Y-8228815D01*
X14685714Y-8228815D02*
X14680952Y-8238339D01*
X14680952Y-8238339D02*
X14676190Y-8243101D01*
X14676190Y-8243101D02*
X14666667Y-8247863D01*
X14666667Y-8247863D02*
X14628571Y-8247863D01*
X14780952Y-8295482D02*
X14723809Y-8295482D01*
X14752381Y-8295482D02*
X14752381Y-8195482D01*
X14752381Y-8195482D02*
X14742857Y-8209768D01*
X14742857Y-8209768D02*
X14733333Y-8219291D01*
X14733333Y-8219291D02*
X14723809Y-8224053D01*
X14819048Y-8205006D02*
X14823809Y-8200244D01*
X14823809Y-8200244D02*
X14833333Y-8195482D01*
X14833333Y-8195482D02*
X14857143Y-8195482D01*
X14857143Y-8195482D02*
X14866667Y-8200244D01*
X14866667Y-8200244D02*
X14871428Y-8205006D01*
X14871428Y-8205006D02*
X14876190Y-8214529D01*
X14876190Y-8214529D02*
X14876190Y-8224053D01*
X14876190Y-8224053D02*
X14871428Y-8238339D01*
X14871428Y-8238339D02*
X14814286Y-8295482D01*
X14814286Y-8295482D02*
X14876190Y-8295482D01*
X14925714Y-8695482D02*
X14892381Y-8647863D01*
X14868571Y-8695482D02*
X14868571Y-8595482D01*
X14868571Y-8595482D02*
X14906667Y-8595482D01*
X14906667Y-8595482D02*
X14916190Y-8600244D01*
X14916190Y-8600244D02*
X14920952Y-8605006D01*
X14920952Y-8605006D02*
X14925714Y-8614530D01*
X14925714Y-8614530D02*
X14925714Y-8628815D01*
X14925714Y-8628815D02*
X14920952Y-8638339D01*
X14920952Y-8638339D02*
X14916190Y-8643101D01*
X14916190Y-8643101D02*
X14906667Y-8647863D01*
X14906667Y-8647863D02*
X14868571Y-8647863D01*
X14963809Y-8605006D02*
X14968571Y-8600244D01*
X14968571Y-8600244D02*
X14978095Y-8595482D01*
X14978095Y-8595482D02*
X15001905Y-8595482D01*
X15001905Y-8595482D02*
X15011428Y-8600244D01*
X15011428Y-8600244D02*
X15016190Y-8605006D01*
X15016190Y-8605006D02*
X15020952Y-8614530D01*
X15020952Y-8614530D02*
X15020952Y-8624053D01*
X15020952Y-8624053D02*
X15016190Y-8638339D01*
X15016190Y-8638339D02*
X14959048Y-8695482D01*
X14959048Y-8695482D02*
X15020952Y-8695482D01*
X15082857Y-8595482D02*
X15092381Y-8595482D01*
X15092381Y-8595482D02*
X15101905Y-8600244D01*
X15101905Y-8600244D02*
X15106667Y-8605006D01*
X15106667Y-8605006D02*
X15111428Y-8614530D01*
X15111428Y-8614530D02*
X15116190Y-8633577D01*
X15116190Y-8633577D02*
X15116190Y-8657387D01*
X15116190Y-8657387D02*
X15111428Y-8676434D01*
X15111428Y-8676434D02*
X15106667Y-8685958D01*
X15106667Y-8685958D02*
X15101905Y-8690720D01*
X15101905Y-8690720D02*
X15092381Y-8695482D01*
X15092381Y-8695482D02*
X15082857Y-8695482D01*
X15082857Y-8695482D02*
X15073333Y-8690720D01*
X15073333Y-8690720D02*
X15068571Y-8685958D01*
X15068571Y-8685958D02*
X15063809Y-8676434D01*
X15063809Y-8676434D02*
X15059048Y-8657387D01*
X15059048Y-8657387D02*
X15059048Y-8633577D01*
X15059048Y-8633577D02*
X15063809Y-8614530D01*
X15063809Y-8614530D02*
X15068571Y-8605006D01*
X15068571Y-8605006D02*
X15073333Y-8600244D01*
X15073333Y-8600244D02*
X15082857Y-8595482D01*
X17235714Y-11885958D02*
X17230952Y-11890720D01*
X17230952Y-11890720D02*
X17216667Y-11895482D01*
X17216667Y-11895482D02*
X17207143Y-11895482D01*
X17207143Y-11895482D02*
X17192857Y-11890720D01*
X17192857Y-11890720D02*
X17183333Y-11881196D01*
X17183333Y-11881196D02*
X17178571Y-11871672D01*
X17178571Y-11871672D02*
X17173810Y-11852625D01*
X17173810Y-11852625D02*
X17173810Y-11838339D01*
X17173810Y-11838339D02*
X17178571Y-11819291D01*
X17178571Y-11819291D02*
X17183333Y-11809768D01*
X17183333Y-11809768D02*
X17192857Y-11800244D01*
X17192857Y-11800244D02*
X17207143Y-11795482D01*
X17207143Y-11795482D02*
X17216667Y-11795482D01*
X17216667Y-11795482D02*
X17230952Y-11800244D01*
X17230952Y-11800244D02*
X17235714Y-11805006D01*
X17330952Y-11895482D02*
X17273810Y-11895482D01*
X17302381Y-11895482D02*
X17302381Y-11795482D01*
X17302381Y-11795482D02*
X17292857Y-11809768D01*
X17292857Y-11809768D02*
X17283333Y-11819291D01*
X17283333Y-11819291D02*
X17273810Y-11824053D01*
X17426190Y-11895482D02*
X17369048Y-11895482D01*
X17397619Y-11895482D02*
X17397619Y-11795482D01*
X17397619Y-11795482D02*
X17388095Y-11809768D01*
X17388095Y-11809768D02*
X17378571Y-11819291D01*
X17378571Y-11819291D02*
X17369048Y-11824053D01*
X15885714Y-8695482D02*
X15852381Y-8647863D01*
X15828571Y-8695482D02*
X15828571Y-8595482D01*
X15828571Y-8595482D02*
X15866667Y-8595482D01*
X15866667Y-8595482D02*
X15876190Y-8600244D01*
X15876190Y-8600244D02*
X15880952Y-8605006D01*
X15880952Y-8605006D02*
X15885714Y-8614530D01*
X15885714Y-8614530D02*
X15885714Y-8628815D01*
X15885714Y-8628815D02*
X15880952Y-8638339D01*
X15880952Y-8638339D02*
X15876190Y-8643101D01*
X15876190Y-8643101D02*
X15866667Y-8647863D01*
X15866667Y-8647863D02*
X15828571Y-8647863D01*
X15980952Y-8695482D02*
X15923809Y-8695482D01*
X15952381Y-8695482D02*
X15952381Y-8595482D01*
X15952381Y-8595482D02*
X15942857Y-8609768D01*
X15942857Y-8609768D02*
X15933333Y-8619291D01*
X15933333Y-8619291D02*
X15923809Y-8624053D01*
X16038095Y-8638339D02*
X16028571Y-8633577D01*
X16028571Y-8633577D02*
X16023809Y-8628815D01*
X16023809Y-8628815D02*
X16019048Y-8619291D01*
X16019048Y-8619291D02*
X16019048Y-8614530D01*
X16019048Y-8614530D02*
X16023809Y-8605006D01*
X16023809Y-8605006D02*
X16028571Y-8600244D01*
X16028571Y-8600244D02*
X16038095Y-8595482D01*
X16038095Y-8595482D02*
X16057143Y-8595482D01*
X16057143Y-8595482D02*
X16066667Y-8600244D01*
X16066667Y-8600244D02*
X16071428Y-8605006D01*
X16071428Y-8605006D02*
X16076190Y-8614530D01*
X16076190Y-8614530D02*
X16076190Y-8619291D01*
X16076190Y-8619291D02*
X16071428Y-8628815D01*
X16071428Y-8628815D02*
X16066667Y-8633577D01*
X16066667Y-8633577D02*
X16057143Y-8638339D01*
X16057143Y-8638339D02*
X16038095Y-8638339D01*
X16038095Y-8638339D02*
X16028571Y-8643101D01*
X16028571Y-8643101D02*
X16023809Y-8647863D01*
X16023809Y-8647863D02*
X16019048Y-8657387D01*
X16019048Y-8657387D02*
X16019048Y-8676434D01*
X16019048Y-8676434D02*
X16023809Y-8685958D01*
X16023809Y-8685958D02*
X16028571Y-8690720D01*
X16028571Y-8690720D02*
X16038095Y-8695482D01*
X16038095Y-8695482D02*
X16057143Y-8695482D01*
X16057143Y-8695482D02*
X16066667Y-8690720D01*
X16066667Y-8690720D02*
X16071428Y-8685958D01*
X16071428Y-8685958D02*
X16076190Y-8676434D01*
X16076190Y-8676434D02*
X16076190Y-8657387D01*
X16076190Y-8657387D02*
X16071428Y-8647863D01*
X16071428Y-8647863D02*
X16066667Y-8643101D01*
X16066667Y-8643101D02*
X16057143Y-8638339D01*
X13283333Y-8295482D02*
X13250000Y-8247863D01*
X13226190Y-8295482D02*
X13226190Y-8195482D01*
X13226190Y-8195482D02*
X13264286Y-8195482D01*
X13264286Y-8195482D02*
X13273809Y-8200244D01*
X13273809Y-8200244D02*
X13278571Y-8205006D01*
X13278571Y-8205006D02*
X13283333Y-8214529D01*
X13283333Y-8214529D02*
X13283333Y-8228815D01*
X13283333Y-8228815D02*
X13278571Y-8238339D01*
X13278571Y-8238339D02*
X13273809Y-8243101D01*
X13273809Y-8243101D02*
X13264286Y-8247863D01*
X13264286Y-8247863D02*
X13226190Y-8247863D01*
X13330952Y-8295482D02*
X13350000Y-8295482D01*
X13350000Y-8295482D02*
X13359524Y-8290720D01*
X13359524Y-8290720D02*
X13364286Y-8285958D01*
X13364286Y-8285958D02*
X13373809Y-8271672D01*
X13373809Y-8271672D02*
X13378571Y-8252625D01*
X13378571Y-8252625D02*
X13378571Y-8214529D01*
X13378571Y-8214529D02*
X13373809Y-8205006D01*
X13373809Y-8205006D02*
X13369048Y-8200244D01*
X13369048Y-8200244D02*
X13359524Y-8195482D01*
X13359524Y-8195482D02*
X13340476Y-8195482D01*
X13340476Y-8195482D02*
X13330952Y-8200244D01*
X13330952Y-8200244D02*
X13326190Y-8205006D01*
X13326190Y-8205006D02*
X13321429Y-8214529D01*
X13321429Y-8214529D02*
X13321429Y-8238339D01*
X13321429Y-8238339D02*
X13326190Y-8247863D01*
X13326190Y-8247863D02*
X13330952Y-8252625D01*
X13330952Y-8252625D02*
X13340476Y-8257387D01*
X13340476Y-8257387D02*
X13359524Y-8257387D01*
X13359524Y-8257387D02*
X13369048Y-8252625D01*
X13369048Y-8252625D02*
X13373809Y-8247863D01*
X13373809Y-8247863D02*
X13378571Y-8238339D01*
X14583333Y-11195482D02*
X14550000Y-11147863D01*
X14526190Y-11195482D02*
X14526190Y-11095482D01*
X14526190Y-11095482D02*
X14564286Y-11095482D01*
X14564286Y-11095482D02*
X14573809Y-11100244D01*
X14573809Y-11100244D02*
X14578571Y-11105006D01*
X14578571Y-11105006D02*
X14583333Y-11114530D01*
X14583333Y-11114530D02*
X14583333Y-11128815D01*
X14583333Y-11128815D02*
X14578571Y-11138339D01*
X14578571Y-11138339D02*
X14573809Y-11143101D01*
X14573809Y-11143101D02*
X14564286Y-11147863D01*
X14564286Y-11147863D02*
X14526190Y-11147863D01*
X14678571Y-11195482D02*
X14621429Y-11195482D01*
X14650000Y-11195482D02*
X14650000Y-11095482D01*
X14650000Y-11095482D02*
X14640476Y-11109768D01*
X14640476Y-11109768D02*
X14630952Y-11119291D01*
X14630952Y-11119291D02*
X14621429Y-11124053D01*
X17183333Y-11495482D02*
X17150000Y-11447863D01*
X17126191Y-11495482D02*
X17126191Y-11395482D01*
X17126191Y-11395482D02*
X17164286Y-11395482D01*
X17164286Y-11395482D02*
X17173810Y-11400244D01*
X17173810Y-11400244D02*
X17178571Y-11405006D01*
X17178571Y-11405006D02*
X17183333Y-11414529D01*
X17183333Y-11414529D02*
X17183333Y-11428815D01*
X17183333Y-11428815D02*
X17178571Y-11438339D01*
X17178571Y-11438339D02*
X17173810Y-11443101D01*
X17173810Y-11443101D02*
X17164286Y-11447863D01*
X17164286Y-11447863D02*
X17126191Y-11447863D01*
X17216667Y-11395482D02*
X17283333Y-11395482D01*
X17283333Y-11395482D02*
X17240476Y-11495482D01*
X16423809Y-11535482D02*
X16423809Y-11616434D01*
X16423809Y-11616434D02*
X16428571Y-11625958D01*
X16428571Y-11625958D02*
X16433333Y-11630720D01*
X16433333Y-11630720D02*
X16442857Y-11635482D01*
X16442857Y-11635482D02*
X16461905Y-11635482D01*
X16461905Y-11635482D02*
X16471428Y-11630720D01*
X16471428Y-11630720D02*
X16476190Y-11625958D01*
X16476190Y-11625958D02*
X16480952Y-11616434D01*
X16480952Y-11616434D02*
X16480952Y-11535482D01*
X16571428Y-11568815D02*
X16571428Y-11635482D01*
X16547619Y-11530720D02*
X16523809Y-11602148D01*
X16523809Y-11602148D02*
X16585714Y-11602148D01*
X13483333Y-10535958D02*
X13478571Y-10540720D01*
X13478571Y-10540720D02*
X13464286Y-10545482D01*
X13464286Y-10545482D02*
X13454762Y-10545482D01*
X13454762Y-10545482D02*
X13440476Y-10540720D01*
X13440476Y-10540720D02*
X13430952Y-10531196D01*
X13430952Y-10531196D02*
X13426190Y-10521672D01*
X13426190Y-10521672D02*
X13421429Y-10502625D01*
X13421429Y-10502625D02*
X13421429Y-10488339D01*
X13421429Y-10488339D02*
X13426190Y-10469291D01*
X13426190Y-10469291D02*
X13430952Y-10459768D01*
X13430952Y-10459768D02*
X13440476Y-10450244D01*
X13440476Y-10450244D02*
X13454762Y-10445482D01*
X13454762Y-10445482D02*
X13464286Y-10445482D01*
X13464286Y-10445482D02*
X13478571Y-10450244D01*
X13478571Y-10450244D02*
X13483333Y-10455006D01*
X13516667Y-10445482D02*
X13583333Y-10445482D01*
X13583333Y-10445482D02*
X13540476Y-10545482D01*
X16330476Y-8305006D02*
X16320952Y-8300244D01*
X16320952Y-8300244D02*
X16311428Y-8290720D01*
X16311428Y-8290720D02*
X16297143Y-8276434D01*
X16297143Y-8276434D02*
X16287619Y-8271672D01*
X16287619Y-8271672D02*
X16278095Y-8271672D01*
X16282857Y-8295482D02*
X16273333Y-8290720D01*
X16273333Y-8290720D02*
X16263809Y-8281196D01*
X16263809Y-8281196D02*
X16259048Y-8262148D01*
X16259048Y-8262148D02*
X16259048Y-8228815D01*
X16259048Y-8228815D02*
X16263809Y-8209768D01*
X16263809Y-8209768D02*
X16273333Y-8200244D01*
X16273333Y-8200244D02*
X16282857Y-8195482D01*
X16282857Y-8195482D02*
X16301905Y-8195482D01*
X16301905Y-8195482D02*
X16311428Y-8200244D01*
X16311428Y-8200244D02*
X16320952Y-8209768D01*
X16320952Y-8209768D02*
X16325714Y-8228815D01*
X16325714Y-8228815D02*
X16325714Y-8262148D01*
X16325714Y-8262148D02*
X16320952Y-8281196D01*
X16320952Y-8281196D02*
X16311428Y-8290720D01*
X16311428Y-8290720D02*
X16301905Y-8295482D01*
X16301905Y-8295482D02*
X16282857Y-8295482D01*
X16420952Y-8295482D02*
X16363809Y-8295482D01*
X16392381Y-8295482D02*
X16392381Y-8195482D01*
X16392381Y-8195482D02*
X16382857Y-8209768D01*
X16382857Y-8209768D02*
X16373333Y-8219291D01*
X16373333Y-8219291D02*
X16363809Y-8224053D01*
X17480982Y-11383333D02*
X17552410Y-11383333D01*
X17552410Y-11383333D02*
X17566696Y-11388095D01*
X17566696Y-11388095D02*
X17576220Y-11397619D01*
X17576220Y-11397619D02*
X17580982Y-11411905D01*
X17580982Y-11411905D02*
X17580982Y-11421428D01*
X17480982Y-11345238D02*
X17480982Y-11283333D01*
X17480982Y-11283333D02*
X17519077Y-11316667D01*
X17519077Y-11316667D02*
X17519077Y-11302381D01*
X17519077Y-11302381D02*
X17523839Y-11292857D01*
X17523839Y-11292857D02*
X17528601Y-11288095D01*
X17528601Y-11288095D02*
X17538125Y-11283333D01*
X17538125Y-11283333D02*
X17561934Y-11283333D01*
X17561934Y-11283333D02*
X17571458Y-11288095D01*
X17571458Y-11288095D02*
X17576220Y-11292857D01*
X17576220Y-11292857D02*
X17580982Y-11302381D01*
X17580982Y-11302381D02*
X17580982Y-11330952D01*
X17580982Y-11330952D02*
X17576220Y-11340476D01*
X17576220Y-11340476D02*
X17571458Y-11345238D01*
X16173809Y-12695482D02*
X16173809Y-12776434D01*
X16173809Y-12776434D02*
X16178571Y-12785958D01*
X16178571Y-12785958D02*
X16183333Y-12790720D01*
X16183333Y-12790720D02*
X16192857Y-12795482D01*
X16192857Y-12795482D02*
X16211905Y-12795482D01*
X16211905Y-12795482D02*
X16221428Y-12790720D01*
X16221428Y-12790720D02*
X16226190Y-12785958D01*
X16226190Y-12785958D02*
X16230952Y-12776434D01*
X16230952Y-12776434D02*
X16230952Y-12695482D01*
X16269048Y-12695482D02*
X16330952Y-12695482D01*
X16330952Y-12695482D02*
X16297619Y-12733577D01*
X16297619Y-12733577D02*
X16311905Y-12733577D01*
X16311905Y-12733577D02*
X16321428Y-12738339D01*
X16321428Y-12738339D02*
X16326190Y-12743101D01*
X16326190Y-12743101D02*
X16330952Y-12752625D01*
X16330952Y-12752625D02*
X16330952Y-12776434D01*
X16330952Y-12776434D02*
X16326190Y-12785958D01*
X16326190Y-12785958D02*
X16321428Y-12790720D01*
X16321428Y-12790720D02*
X16311905Y-12795482D01*
X16311905Y-12795482D02*
X16283333Y-12795482D01*
X16283333Y-12795482D02*
X16273809Y-12790720D01*
X16273809Y-12790720D02*
X16269048Y-12785958D01*
X14085714Y-8295482D02*
X14052381Y-8247863D01*
X14028571Y-8295482D02*
X14028571Y-8195482D01*
X14028571Y-8195482D02*
X14066667Y-8195482D01*
X14066667Y-8195482D02*
X14076190Y-8200244D01*
X14076190Y-8200244D02*
X14080952Y-8205006D01*
X14080952Y-8205006D02*
X14085714Y-8214529D01*
X14085714Y-8214529D02*
X14085714Y-8228815D01*
X14085714Y-8228815D02*
X14080952Y-8238339D01*
X14080952Y-8238339D02*
X14076190Y-8243101D01*
X14076190Y-8243101D02*
X14066667Y-8247863D01*
X14066667Y-8247863D02*
X14028571Y-8247863D01*
X14180952Y-8295482D02*
X14123809Y-8295482D01*
X14152381Y-8295482D02*
X14152381Y-8195482D01*
X14152381Y-8195482D02*
X14142857Y-8209768D01*
X14142857Y-8209768D02*
X14133333Y-8219291D01*
X14133333Y-8219291D02*
X14123809Y-8224053D01*
X14266667Y-8228815D02*
X14266667Y-8295482D01*
X14242857Y-8190720D02*
X14219048Y-8262148D01*
X14219048Y-8262148D02*
X14280952Y-8262148D01*
X14385714Y-8295482D02*
X14352381Y-8247863D01*
X14328571Y-8295482D02*
X14328571Y-8195482D01*
X14328571Y-8195482D02*
X14366667Y-8195482D01*
X14366667Y-8195482D02*
X14376190Y-8200244D01*
X14376190Y-8200244D02*
X14380952Y-8205006D01*
X14380952Y-8205006D02*
X14385714Y-8214529D01*
X14385714Y-8214529D02*
X14385714Y-8228815D01*
X14385714Y-8228815D02*
X14380952Y-8238339D01*
X14380952Y-8238339D02*
X14376190Y-8243101D01*
X14376190Y-8243101D02*
X14366667Y-8247863D01*
X14366667Y-8247863D02*
X14328571Y-8247863D01*
X14480952Y-8295482D02*
X14423809Y-8295482D01*
X14452381Y-8295482D02*
X14452381Y-8195482D01*
X14452381Y-8195482D02*
X14442857Y-8209768D01*
X14442857Y-8209768D02*
X14433333Y-8219291D01*
X14433333Y-8219291D02*
X14423809Y-8224053D01*
X14514286Y-8195482D02*
X14576190Y-8195482D01*
X14576190Y-8195482D02*
X14542857Y-8233577D01*
X14542857Y-8233577D02*
X14557143Y-8233577D01*
X14557143Y-8233577D02*
X14566667Y-8238339D01*
X14566667Y-8238339D02*
X14571428Y-8243101D01*
X14571428Y-8243101D02*
X14576190Y-8252625D01*
X14576190Y-8252625D02*
X14576190Y-8276434D01*
X14576190Y-8276434D02*
X14571428Y-8285958D01*
X14571428Y-8285958D02*
X14566667Y-8290720D01*
X14566667Y-8290720D02*
X14557143Y-8295482D01*
X14557143Y-8295482D02*
X14528571Y-8295482D01*
X14528571Y-8295482D02*
X14519048Y-8290720D01*
X14519048Y-8290720D02*
X14514286Y-8285958D01*
X17183333Y-11245482D02*
X17150000Y-11197863D01*
X17126191Y-11245482D02*
X17126191Y-11145482D01*
X17126191Y-11145482D02*
X17164286Y-11145482D01*
X17164286Y-11145482D02*
X17173810Y-11150244D01*
X17173810Y-11150244D02*
X17178571Y-11155006D01*
X17178571Y-11155006D02*
X17183333Y-11164530D01*
X17183333Y-11164530D02*
X17183333Y-11178815D01*
X17183333Y-11178815D02*
X17178571Y-11188339D01*
X17178571Y-11188339D02*
X17173810Y-11193101D01*
X17173810Y-11193101D02*
X17164286Y-11197863D01*
X17164286Y-11197863D02*
X17126191Y-11197863D01*
X17240476Y-11188339D02*
X17230952Y-11183577D01*
X17230952Y-11183577D02*
X17226191Y-11178815D01*
X17226191Y-11178815D02*
X17221429Y-11169291D01*
X17221429Y-11169291D02*
X17221429Y-11164530D01*
X17221429Y-11164530D02*
X17226191Y-11155006D01*
X17226191Y-11155006D02*
X17230952Y-11150244D01*
X17230952Y-11150244D02*
X17240476Y-11145482D01*
X17240476Y-11145482D02*
X17259524Y-11145482D01*
X17259524Y-11145482D02*
X17269048Y-11150244D01*
X17269048Y-11150244D02*
X17273810Y-11155006D01*
X17273810Y-11155006D02*
X17278571Y-11164530D01*
X17278571Y-11164530D02*
X17278571Y-11169291D01*
X17278571Y-11169291D02*
X17273810Y-11178815D01*
X17273810Y-11178815D02*
X17269048Y-11183577D01*
X17269048Y-11183577D02*
X17259524Y-11188339D01*
X17259524Y-11188339D02*
X17240476Y-11188339D01*
X17240476Y-11188339D02*
X17230952Y-11193101D01*
X17230952Y-11193101D02*
X17226191Y-11197863D01*
X17226191Y-11197863D02*
X17221429Y-11207387D01*
X17221429Y-11207387D02*
X17221429Y-11226434D01*
X17221429Y-11226434D02*
X17226191Y-11235958D01*
X17226191Y-11235958D02*
X17230952Y-11240720D01*
X17230952Y-11240720D02*
X17240476Y-11245482D01*
X17240476Y-11245482D02*
X17259524Y-11245482D01*
X17259524Y-11245482D02*
X17269048Y-11240720D01*
X17269048Y-11240720D02*
X17273810Y-11235958D01*
X17273810Y-11235958D02*
X17278571Y-11226434D01*
X17278571Y-11226434D02*
X17278571Y-11207387D01*
X17278571Y-11207387D02*
X17273810Y-11197863D01*
X17273810Y-11197863D02*
X17269048Y-11193101D01*
X17269048Y-11193101D02*
X17259524Y-11188339D01*
X14083333Y-11285958D02*
X14078571Y-11290720D01*
X14078571Y-11290720D02*
X14064286Y-11295482D01*
X14064286Y-11295482D02*
X14054762Y-11295482D01*
X14054762Y-11295482D02*
X14040476Y-11290720D01*
X14040476Y-11290720D02*
X14030952Y-11281196D01*
X14030952Y-11281196D02*
X14026190Y-11271672D01*
X14026190Y-11271672D02*
X14021429Y-11252625D01*
X14021429Y-11252625D02*
X14021429Y-11238339D01*
X14021429Y-11238339D02*
X14026190Y-11219291D01*
X14026190Y-11219291D02*
X14030952Y-11209768D01*
X14030952Y-11209768D02*
X14040476Y-11200244D01*
X14040476Y-11200244D02*
X14054762Y-11195482D01*
X14054762Y-11195482D02*
X14064286Y-11195482D01*
X14064286Y-11195482D02*
X14078571Y-11200244D01*
X14078571Y-11200244D02*
X14083333Y-11205006D01*
X14178571Y-11295482D02*
X14121429Y-11295482D01*
X14150000Y-11295482D02*
X14150000Y-11195482D01*
X14150000Y-11195482D02*
X14140476Y-11209768D01*
X14140476Y-11209768D02*
X14130952Y-11219291D01*
X14130952Y-11219291D02*
X14121429Y-11224053D01*
X13241667Y-12200482D02*
X13241667Y-12271910D01*
X13241667Y-12271910D02*
X13236905Y-12286196D01*
X13236905Y-12286196D02*
X13227381Y-12295720D01*
X13227381Y-12295720D02*
X13213095Y-12300482D01*
X13213095Y-12300482D02*
X13203571Y-12300482D01*
X13284524Y-12210006D02*
X13289286Y-12205244D01*
X13289286Y-12205244D02*
X13298809Y-12200482D01*
X13298809Y-12200482D02*
X13322619Y-12200482D01*
X13322619Y-12200482D02*
X13332143Y-12205244D01*
X13332143Y-12205244D02*
X13336905Y-12210006D01*
X13336905Y-12210006D02*
X13341667Y-12219529D01*
X13341667Y-12219529D02*
X13341667Y-12229053D01*
X13341667Y-12229053D02*
X13336905Y-12243339D01*
X13336905Y-12243339D02*
X13279762Y-12300482D01*
X13279762Y-12300482D02*
X13341667Y-12300482D01*
X15133333Y-11435958D02*
X15128571Y-11440720D01*
X15128571Y-11440720D02*
X15114286Y-11445482D01*
X15114286Y-11445482D02*
X15104762Y-11445482D01*
X15104762Y-11445482D02*
X15090476Y-11440720D01*
X15090476Y-11440720D02*
X15080952Y-11431196D01*
X15080952Y-11431196D02*
X15076190Y-11421672D01*
X15076190Y-11421672D02*
X15071429Y-11402625D01*
X15071429Y-11402625D02*
X15071429Y-11388339D01*
X15071429Y-11388339D02*
X15076190Y-11369291D01*
X15076190Y-11369291D02*
X15080952Y-11359768D01*
X15080952Y-11359768D02*
X15090476Y-11350244D01*
X15090476Y-11350244D02*
X15104762Y-11345482D01*
X15104762Y-11345482D02*
X15114286Y-11345482D01*
X15114286Y-11345482D02*
X15128571Y-11350244D01*
X15128571Y-11350244D02*
X15133333Y-11355006D01*
X15166667Y-11345482D02*
X15228571Y-11345482D01*
X15228571Y-11345482D02*
X15195238Y-11383577D01*
X15195238Y-11383577D02*
X15209524Y-11383577D01*
X15209524Y-11383577D02*
X15219048Y-11388339D01*
X15219048Y-11388339D02*
X15223809Y-11393101D01*
X15223809Y-11393101D02*
X15228571Y-11402625D01*
X15228571Y-11402625D02*
X15228571Y-11426434D01*
X15228571Y-11426434D02*
X15223809Y-11435958D01*
X15223809Y-11435958D02*
X15219048Y-11440720D01*
X15219048Y-11440720D02*
X15209524Y-11445482D01*
X15209524Y-11445482D02*
X15180952Y-11445482D01*
X15180952Y-11445482D02*
X15171429Y-11440720D01*
X15171429Y-11440720D02*
X15166667Y-11435958D01*
X13683333Y-12395482D02*
X13650000Y-12347863D01*
X13626190Y-12395482D02*
X13626190Y-12295482D01*
X13626190Y-12295482D02*
X13664286Y-12295482D01*
X13664286Y-12295482D02*
X13673809Y-12300244D01*
X13673809Y-12300244D02*
X13678571Y-12305006D01*
X13678571Y-12305006D02*
X13683333Y-12314529D01*
X13683333Y-12314529D02*
X13683333Y-12328815D01*
X13683333Y-12328815D02*
X13678571Y-12338339D01*
X13678571Y-12338339D02*
X13673809Y-12343101D01*
X13673809Y-12343101D02*
X13664286Y-12347863D01*
X13664286Y-12347863D02*
X13626190Y-12347863D01*
X13769048Y-12328815D02*
X13769048Y-12395482D01*
X13745238Y-12290720D02*
X13721429Y-12362148D01*
X13721429Y-12362148D02*
X13783333Y-12362148D01*
X13485714Y-8295482D02*
X13452381Y-8247863D01*
X13428571Y-8295482D02*
X13428571Y-8195482D01*
X13428571Y-8195482D02*
X13466667Y-8195482D01*
X13466667Y-8195482D02*
X13476190Y-8200244D01*
X13476190Y-8200244D02*
X13480952Y-8205006D01*
X13480952Y-8205006D02*
X13485714Y-8214529D01*
X13485714Y-8214529D02*
X13485714Y-8228815D01*
X13485714Y-8228815D02*
X13480952Y-8238339D01*
X13480952Y-8238339D02*
X13476190Y-8243101D01*
X13476190Y-8243101D02*
X13466667Y-8247863D01*
X13466667Y-8247863D02*
X13428571Y-8247863D01*
X13580952Y-8295482D02*
X13523809Y-8295482D01*
X13552381Y-8295482D02*
X13552381Y-8195482D01*
X13552381Y-8195482D02*
X13542857Y-8209768D01*
X13542857Y-8209768D02*
X13533333Y-8219291D01*
X13533333Y-8219291D02*
X13523809Y-8224053D01*
X13666667Y-8195482D02*
X13647619Y-8195482D01*
X13647619Y-8195482D02*
X13638095Y-8200244D01*
X13638095Y-8200244D02*
X13633333Y-8205006D01*
X13633333Y-8205006D02*
X13623809Y-8219291D01*
X13623809Y-8219291D02*
X13619048Y-8238339D01*
X13619048Y-8238339D02*
X13619048Y-8276434D01*
X13619048Y-8276434D02*
X13623809Y-8285958D01*
X13623809Y-8285958D02*
X13628571Y-8290720D01*
X13628571Y-8290720D02*
X13638095Y-8295482D01*
X13638095Y-8295482D02*
X13657143Y-8295482D01*
X13657143Y-8295482D02*
X13666667Y-8290720D01*
X13666667Y-8290720D02*
X13671428Y-8285958D01*
X13671428Y-8285958D02*
X13676190Y-8276434D01*
X13676190Y-8276434D02*
X13676190Y-8252625D01*
X13676190Y-8252625D02*
X13671428Y-8243101D01*
X13671428Y-8243101D02*
X13666667Y-8238339D01*
X13666667Y-8238339D02*
X13657143Y-8233577D01*
X13657143Y-8233577D02*
X13638095Y-8233577D01*
X13638095Y-8233577D02*
X13628571Y-8238339D01*
X13628571Y-8238339D02*
X13623809Y-8243101D01*
X13623809Y-8243101D02*
X13619048Y-8252625D01*
X16935714Y-8345482D02*
X16902381Y-8297863D01*
X16878571Y-8345482D02*
X16878571Y-8245482D01*
X16878571Y-8245482D02*
X16916667Y-8245482D01*
X16916667Y-8245482D02*
X16926190Y-8250244D01*
X16926190Y-8250244D02*
X16930952Y-8255006D01*
X16930952Y-8255006D02*
X16935714Y-8264529D01*
X16935714Y-8264529D02*
X16935714Y-8278815D01*
X16935714Y-8278815D02*
X16930952Y-8288339D01*
X16930952Y-8288339D02*
X16926190Y-8293101D01*
X16926190Y-8293101D02*
X16916667Y-8297863D01*
X16916667Y-8297863D02*
X16878571Y-8297863D01*
X17030952Y-8345482D02*
X16973810Y-8345482D01*
X17002381Y-8345482D02*
X17002381Y-8245482D01*
X17002381Y-8245482D02*
X16992857Y-8259768D01*
X16992857Y-8259768D02*
X16983333Y-8269291D01*
X16983333Y-8269291D02*
X16973810Y-8274053D01*
X17092857Y-8245482D02*
X17102381Y-8245482D01*
X17102381Y-8245482D02*
X17111905Y-8250244D01*
X17111905Y-8250244D02*
X17116667Y-8255006D01*
X17116667Y-8255006D02*
X17121429Y-8264529D01*
X17121429Y-8264529D02*
X17126190Y-8283577D01*
X17126190Y-8283577D02*
X17126190Y-8307387D01*
X17126190Y-8307387D02*
X17121429Y-8326434D01*
X17121429Y-8326434D02*
X17116667Y-8335958D01*
X17116667Y-8335958D02*
X17111905Y-8340720D01*
X17111905Y-8340720D02*
X17102381Y-8345482D01*
X17102381Y-8345482D02*
X17092857Y-8345482D01*
X17092857Y-8345482D02*
X17083333Y-8340720D01*
X17083333Y-8340720D02*
X17078571Y-8335958D01*
X17078571Y-8335958D02*
X17073810Y-8326434D01*
X17073810Y-8326434D02*
X17069048Y-8307387D01*
X17069048Y-8307387D02*
X17069048Y-8283577D01*
X17069048Y-8283577D02*
X17073810Y-8264529D01*
X17073810Y-8264529D02*
X17078571Y-8255006D01*
X17078571Y-8255006D02*
X17083333Y-8250244D01*
X17083333Y-8250244D02*
X17092857Y-8245482D01*
X15733333Y-9995482D02*
X15700000Y-9947863D01*
X15676190Y-9995482D02*
X15676190Y-9895482D01*
X15676190Y-9895482D02*
X15714286Y-9895482D01*
X15714286Y-9895482D02*
X15723809Y-9900244D01*
X15723809Y-9900244D02*
X15728571Y-9905006D01*
X15728571Y-9905006D02*
X15733333Y-9914530D01*
X15733333Y-9914530D02*
X15733333Y-9928815D01*
X15733333Y-9928815D02*
X15728571Y-9938339D01*
X15728571Y-9938339D02*
X15723809Y-9943101D01*
X15723809Y-9943101D02*
X15714286Y-9947863D01*
X15714286Y-9947863D02*
X15676190Y-9947863D01*
X15766667Y-9895482D02*
X15828571Y-9895482D01*
X15828571Y-9895482D02*
X15795238Y-9933577D01*
X15795238Y-9933577D02*
X15809524Y-9933577D01*
X15809524Y-9933577D02*
X15819048Y-9938339D01*
X15819048Y-9938339D02*
X15823809Y-9943101D01*
X15823809Y-9943101D02*
X15828571Y-9952625D01*
X15828571Y-9952625D02*
X15828571Y-9976434D01*
X15828571Y-9976434D02*
X15823809Y-9985958D01*
X15823809Y-9985958D02*
X15819048Y-9990720D01*
X15819048Y-9990720D02*
X15809524Y-9995482D01*
X15809524Y-9995482D02*
X15780952Y-9995482D01*
X15780952Y-9995482D02*
X15771429Y-9990720D01*
X15771429Y-9990720D02*
X15766667Y-9985958D01*
X14923809Y-9810482D02*
X14923809Y-9891434D01*
X14923809Y-9891434D02*
X14928571Y-9900958D01*
X14928571Y-9900958D02*
X14933333Y-9905720D01*
X14933333Y-9905720D02*
X14942857Y-9910482D01*
X14942857Y-9910482D02*
X14961905Y-9910482D01*
X14961905Y-9910482D02*
X14971428Y-9905720D01*
X14971428Y-9905720D02*
X14976190Y-9900958D01*
X14976190Y-9900958D02*
X14980952Y-9891434D01*
X14980952Y-9891434D02*
X14980952Y-9810482D01*
X15080952Y-9910482D02*
X15023809Y-9910482D01*
X15052381Y-9910482D02*
X15052381Y-9810482D01*
X15052381Y-9810482D02*
X15042857Y-9824768D01*
X15042857Y-9824768D02*
X15033333Y-9834291D01*
X15033333Y-9834291D02*
X15023809Y-9839053D01*
X14083333Y-11445482D02*
X14050000Y-11397863D01*
X14026190Y-11445482D02*
X14026190Y-11345482D01*
X14026190Y-11345482D02*
X14064286Y-11345482D01*
X14064286Y-11345482D02*
X14073809Y-11350244D01*
X14073809Y-11350244D02*
X14078571Y-11355006D01*
X14078571Y-11355006D02*
X14083333Y-11364529D01*
X14083333Y-11364529D02*
X14083333Y-11378815D01*
X14083333Y-11378815D02*
X14078571Y-11388339D01*
X14078571Y-11388339D02*
X14073809Y-11393101D01*
X14073809Y-11393101D02*
X14064286Y-11397863D01*
X14064286Y-11397863D02*
X14026190Y-11397863D01*
X14121429Y-11355006D02*
X14126190Y-11350244D01*
X14126190Y-11350244D02*
X14135714Y-11345482D01*
X14135714Y-11345482D02*
X14159524Y-11345482D01*
X14159524Y-11345482D02*
X14169048Y-11350244D01*
X14169048Y-11350244D02*
X14173809Y-11355006D01*
X14173809Y-11355006D02*
X14178571Y-11364529D01*
X14178571Y-11364529D02*
X14178571Y-11374053D01*
X14178571Y-11374053D02*
X14173809Y-11388339D01*
X14173809Y-11388339D02*
X14116667Y-11445482D01*
X14116667Y-11445482D02*
X14178571Y-11445482D01*
X16635714Y-8345482D02*
X16602381Y-8297863D01*
X16578571Y-8345482D02*
X16578571Y-8245482D01*
X16578571Y-8245482D02*
X16616667Y-8245482D01*
X16616667Y-8245482D02*
X16626190Y-8250244D01*
X16626190Y-8250244D02*
X16630952Y-8255006D01*
X16630952Y-8255006D02*
X16635714Y-8264529D01*
X16635714Y-8264529D02*
X16635714Y-8278815D01*
X16635714Y-8278815D02*
X16630952Y-8288339D01*
X16630952Y-8288339D02*
X16626190Y-8293101D01*
X16626190Y-8293101D02*
X16616667Y-8297863D01*
X16616667Y-8297863D02*
X16578571Y-8297863D01*
X16730952Y-8345482D02*
X16673809Y-8345482D01*
X16702381Y-8345482D02*
X16702381Y-8245482D01*
X16702381Y-8245482D02*
X16692857Y-8259768D01*
X16692857Y-8259768D02*
X16683333Y-8269291D01*
X16683333Y-8269291D02*
X16673809Y-8274053D01*
X16826190Y-8345482D02*
X16769048Y-8345482D01*
X16797619Y-8345482D02*
X16797619Y-8245482D01*
X16797619Y-8245482D02*
X16788095Y-8259768D01*
X16788095Y-8259768D02*
X16778571Y-8269291D01*
X16778571Y-8269291D02*
X16769048Y-8274053D01*
X15733333Y-11603958D02*
X15728571Y-11608720D01*
X15728571Y-11608720D02*
X15714286Y-11613482D01*
X15714286Y-11613482D02*
X15704762Y-11613482D01*
X15704762Y-11613482D02*
X15690476Y-11608720D01*
X15690476Y-11608720D02*
X15680952Y-11599196D01*
X15680952Y-11599196D02*
X15676190Y-11589672D01*
X15676190Y-11589672D02*
X15671429Y-11570625D01*
X15671429Y-11570625D02*
X15671429Y-11556339D01*
X15671429Y-11556339D02*
X15676190Y-11537291D01*
X15676190Y-11537291D02*
X15680952Y-11527768D01*
X15680952Y-11527768D02*
X15690476Y-11518244D01*
X15690476Y-11518244D02*
X15704762Y-11513482D01*
X15704762Y-11513482D02*
X15714286Y-11513482D01*
X15714286Y-11513482D02*
X15728571Y-11518244D01*
X15728571Y-11518244D02*
X15733333Y-11523006D01*
X15790476Y-11556339D02*
X15780952Y-11551577D01*
X15780952Y-11551577D02*
X15776190Y-11546815D01*
X15776190Y-11546815D02*
X15771429Y-11537291D01*
X15771429Y-11537291D02*
X15771429Y-11532529D01*
X15771429Y-11532529D02*
X15776190Y-11523006D01*
X15776190Y-11523006D02*
X15780952Y-11518244D01*
X15780952Y-11518244D02*
X15790476Y-11513482D01*
X15790476Y-11513482D02*
X15809524Y-11513482D01*
X15809524Y-11513482D02*
X15819048Y-11518244D01*
X15819048Y-11518244D02*
X15823809Y-11523006D01*
X15823809Y-11523006D02*
X15828571Y-11532529D01*
X15828571Y-11532529D02*
X15828571Y-11537291D01*
X15828571Y-11537291D02*
X15823809Y-11546815D01*
X15823809Y-11546815D02*
X15819048Y-11551577D01*
X15819048Y-11551577D02*
X15809524Y-11556339D01*
X15809524Y-11556339D02*
X15790476Y-11556339D01*
X15790476Y-11556339D02*
X15780952Y-11561101D01*
X15780952Y-11561101D02*
X15776190Y-11565863D01*
X15776190Y-11565863D02*
X15771429Y-11575387D01*
X15771429Y-11575387D02*
X15771429Y-11594434D01*
X15771429Y-11594434D02*
X15776190Y-11603958D01*
X15776190Y-11603958D02*
X15780952Y-11608720D01*
X15780952Y-11608720D02*
X15790476Y-11613482D01*
X15790476Y-11613482D02*
X15809524Y-11613482D01*
X15809524Y-11613482D02*
X15819048Y-11608720D01*
X15819048Y-11608720D02*
X15823809Y-11603958D01*
X15823809Y-11603958D02*
X15828571Y-11594434D01*
X15828571Y-11594434D02*
X15828571Y-11575387D01*
X15828571Y-11575387D02*
X15823809Y-11565863D01*
X15823809Y-11565863D02*
X15819048Y-11561101D01*
X15819048Y-11561101D02*
X15809524Y-11556339D01*
X15375714Y-8695482D02*
X15342381Y-8647863D01*
X15318571Y-8695482D02*
X15318571Y-8595482D01*
X15318571Y-8595482D02*
X15356667Y-8595482D01*
X15356667Y-8595482D02*
X15366190Y-8600244D01*
X15366190Y-8600244D02*
X15370952Y-8605006D01*
X15370952Y-8605006D02*
X15375714Y-8614530D01*
X15375714Y-8614530D02*
X15375714Y-8628815D01*
X15375714Y-8628815D02*
X15370952Y-8638339D01*
X15370952Y-8638339D02*
X15366190Y-8643101D01*
X15366190Y-8643101D02*
X15356667Y-8647863D01*
X15356667Y-8647863D02*
X15318571Y-8647863D01*
X15470952Y-8695482D02*
X15413809Y-8695482D01*
X15442381Y-8695482D02*
X15442381Y-8595482D01*
X15442381Y-8595482D02*
X15432857Y-8609768D01*
X15432857Y-8609768D02*
X15423333Y-8619291D01*
X15423333Y-8619291D02*
X15413809Y-8624053D01*
X15518571Y-8695482D02*
X15537619Y-8695482D01*
X15537619Y-8695482D02*
X15547143Y-8690720D01*
X15547143Y-8690720D02*
X15551905Y-8685958D01*
X15551905Y-8685958D02*
X15561428Y-8671672D01*
X15561428Y-8671672D02*
X15566190Y-8652625D01*
X15566190Y-8652625D02*
X15566190Y-8614530D01*
X15566190Y-8614530D02*
X15561428Y-8605006D01*
X15561428Y-8605006D02*
X15556667Y-8600244D01*
X15556667Y-8600244D02*
X15547143Y-8595482D01*
X15547143Y-8595482D02*
X15528095Y-8595482D01*
X15528095Y-8595482D02*
X15518571Y-8600244D01*
X15518571Y-8600244D02*
X15513809Y-8605006D01*
X15513809Y-8605006D02*
X15509048Y-8614530D01*
X15509048Y-8614530D02*
X15509048Y-8638339D01*
X15509048Y-8638339D02*
X15513809Y-8647863D01*
X15513809Y-8647863D02*
X15518571Y-8652625D01*
X15518571Y-8652625D02*
X15528095Y-8657387D01*
X15528095Y-8657387D02*
X15547143Y-8657387D01*
X15547143Y-8657387D02*
X15556667Y-8652625D01*
X15556667Y-8652625D02*
X15561428Y-8647863D01*
X15561428Y-8647863D02*
X15566190Y-8638339D01*
X14273809Y-11795482D02*
X14273809Y-11876434D01*
X14273809Y-11876434D02*
X14278571Y-11885958D01*
X14278571Y-11885958D02*
X14283333Y-11890720D01*
X14283333Y-11890720D02*
X14292857Y-11895482D01*
X14292857Y-11895482D02*
X14311905Y-11895482D01*
X14311905Y-11895482D02*
X14321428Y-11890720D01*
X14321428Y-11890720D02*
X14326190Y-11885958D01*
X14326190Y-11885958D02*
X14330952Y-11876434D01*
X14330952Y-11876434D02*
X14330952Y-11795482D01*
X14426190Y-11795482D02*
X14378571Y-11795482D01*
X14378571Y-11795482D02*
X14373809Y-11843101D01*
X14373809Y-11843101D02*
X14378571Y-11838339D01*
X14378571Y-11838339D02*
X14388095Y-11833577D01*
X14388095Y-11833577D02*
X14411905Y-11833577D01*
X14411905Y-11833577D02*
X14421428Y-11838339D01*
X14421428Y-11838339D02*
X14426190Y-11843101D01*
X14426190Y-11843101D02*
X14430952Y-11852625D01*
X14430952Y-11852625D02*
X14430952Y-11876434D01*
X14430952Y-11876434D02*
X14426190Y-11885958D01*
X14426190Y-11885958D02*
X14421428Y-11890720D01*
X14421428Y-11890720D02*
X14411905Y-11895482D01*
X14411905Y-11895482D02*
X14388095Y-11895482D01*
X14388095Y-11895482D02*
X14378571Y-11890720D01*
X14378571Y-11890720D02*
X14373809Y-11885958D01*
X14990476Y-8305006D02*
X14980952Y-8300244D01*
X14980952Y-8300244D02*
X14971428Y-8290720D01*
X14971428Y-8290720D02*
X14957143Y-8276434D01*
X14957143Y-8276434D02*
X14947619Y-8271672D01*
X14947619Y-8271672D02*
X14938095Y-8271672D01*
X14942857Y-8295482D02*
X14933333Y-8290720D01*
X14933333Y-8290720D02*
X14923809Y-8281196D01*
X14923809Y-8281196D02*
X14919048Y-8262148D01*
X14919048Y-8262148D02*
X14919048Y-8228815D01*
X14919048Y-8228815D02*
X14923809Y-8209768D01*
X14923809Y-8209768D02*
X14933333Y-8200244D01*
X14933333Y-8200244D02*
X14942857Y-8195482D01*
X14942857Y-8195482D02*
X14961905Y-8195482D01*
X14961905Y-8195482D02*
X14971428Y-8200244D01*
X14971428Y-8200244D02*
X14980952Y-8209768D01*
X14980952Y-8209768D02*
X14985714Y-8228815D01*
X14985714Y-8228815D02*
X14985714Y-8262148D01*
X14985714Y-8262148D02*
X14980952Y-8281196D01*
X14980952Y-8281196D02*
X14971428Y-8290720D01*
X14971428Y-8290720D02*
X14961905Y-8295482D01*
X14961905Y-8295482D02*
X14942857Y-8295482D01*
X15071428Y-8228815D02*
X15071428Y-8295482D01*
X15047619Y-8190720D02*
X15023809Y-8262148D01*
X15023809Y-8262148D02*
X15085714Y-8262148D01*
X12983333Y-11185958D02*
X12978571Y-11190720D01*
X12978571Y-11190720D02*
X12964286Y-11195482D01*
X12964286Y-11195482D02*
X12954762Y-11195482D01*
X12954762Y-11195482D02*
X12940476Y-11190720D01*
X12940476Y-11190720D02*
X12930952Y-11181196D01*
X12930952Y-11181196D02*
X12926190Y-11171672D01*
X12926190Y-11171672D02*
X12921429Y-11152625D01*
X12921429Y-11152625D02*
X12921429Y-11138339D01*
X12921429Y-11138339D02*
X12926190Y-11119291D01*
X12926190Y-11119291D02*
X12930952Y-11109768D01*
X12930952Y-11109768D02*
X12940476Y-11100244D01*
X12940476Y-11100244D02*
X12954762Y-11095482D01*
X12954762Y-11095482D02*
X12964286Y-11095482D01*
X12964286Y-11095482D02*
X12978571Y-11100244D01*
X12978571Y-11100244D02*
X12983333Y-11105006D01*
X13021429Y-11105006D02*
X13026190Y-11100244D01*
X13026190Y-11100244D02*
X13035714Y-11095482D01*
X13035714Y-11095482D02*
X13059524Y-11095482D01*
X13059524Y-11095482D02*
X13069048Y-11100244D01*
X13069048Y-11100244D02*
X13073809Y-11105006D01*
X13073809Y-11105006D02*
X13078571Y-11114530D01*
X13078571Y-11114530D02*
X13078571Y-11124053D01*
X13078571Y-11124053D02*
X13073809Y-11138339D01*
X13073809Y-11138339D02*
X13016667Y-11195482D01*
X13016667Y-11195482D02*
X13078571Y-11195482D01*
X14083333Y-9685958D02*
X14078571Y-9690720D01*
X14078571Y-9690720D02*
X14064286Y-9695482D01*
X14064286Y-9695482D02*
X14054762Y-9695482D01*
X14054762Y-9695482D02*
X14040476Y-9690720D01*
X14040476Y-9690720D02*
X14030952Y-9681196D01*
X14030952Y-9681196D02*
X14026190Y-9671672D01*
X14026190Y-9671672D02*
X14021429Y-9652625D01*
X14021429Y-9652625D02*
X14021429Y-9638339D01*
X14021429Y-9638339D02*
X14026190Y-9619291D01*
X14026190Y-9619291D02*
X14030952Y-9609768D01*
X14030952Y-9609768D02*
X14040476Y-9600244D01*
X14040476Y-9600244D02*
X14054762Y-9595482D01*
X14054762Y-9595482D02*
X14064286Y-9595482D01*
X14064286Y-9595482D02*
X14078571Y-9600244D01*
X14078571Y-9600244D02*
X14083333Y-9605006D01*
X14173809Y-9595482D02*
X14126190Y-9595482D01*
X14126190Y-9595482D02*
X14121429Y-9643101D01*
X14121429Y-9643101D02*
X14126190Y-9638339D01*
X14126190Y-9638339D02*
X14135714Y-9633577D01*
X14135714Y-9633577D02*
X14159524Y-9633577D01*
X14159524Y-9633577D02*
X14169048Y-9638339D01*
X14169048Y-9638339D02*
X14173809Y-9643101D01*
X14173809Y-9643101D02*
X14178571Y-9652625D01*
X14178571Y-9652625D02*
X14178571Y-9676434D01*
X14178571Y-9676434D02*
X14173809Y-9685958D01*
X14173809Y-9685958D02*
X14169048Y-9690720D01*
X14169048Y-9690720D02*
X14159524Y-9695482D01*
X14159524Y-9695482D02*
X14135714Y-9695482D01*
X14135714Y-9695482D02*
X14126190Y-9690720D01*
X14126190Y-9690720D02*
X14121429Y-9685958D01*
X14302381Y-10897863D02*
X14302381Y-10945482D01*
X14269048Y-10845482D02*
X14302381Y-10897863D01*
X14302381Y-10897863D02*
X14335714Y-10845482D01*
X14421428Y-10945482D02*
X14364286Y-10945482D01*
X14392857Y-10945482D02*
X14392857Y-10845482D01*
X14392857Y-10845482D02*
X14383333Y-10859768D01*
X14383333Y-10859768D02*
X14373809Y-10869291D01*
X14373809Y-10869291D02*
X14364286Y-10874053D01*
D12*
%TO.C,C6*%
X14026500Y-10373875D02*
X14026500Y-10426125D01*
X14173500Y-10373875D02*
X14173500Y-10426125D01*
%TO.C,R6*%
X14521500Y-11872706D02*
X14521500Y-11827294D01*
X14668500Y-11872706D02*
X14668500Y-11827294D01*
%TO.C,C10*%
X16876500Y-12123875D02*
X16876500Y-12176125D01*
X17023500Y-12123875D02*
X17023500Y-12176125D01*
%TO.C,C4*%
X13726500Y-9926125D02*
X13726500Y-9873875D01*
X13873500Y-9926125D02*
X13873500Y-9873875D01*
%TO.C,J1*%
X17067000Y-10353000D02*
X17067000Y-9585000D01*
X17333000Y-9585000D02*
X17067000Y-9585000D01*
X17333000Y-10353000D02*
X17067000Y-10353000D01*
X17333000Y-10353000D02*
X17333000Y-9585000D01*
X17333000Y-10480000D02*
X17333000Y-10613000D01*
X17333000Y-10613000D02*
X17200000Y-10613000D01*
%TO.C,Q3*%
X15289000Y-8000000D02*
X15289000Y-7935000D01*
X15289000Y-8000000D02*
X15289000Y-8065000D01*
X15601000Y-8000000D02*
X15601000Y-7935000D01*
X15601000Y-8000000D02*
X15601000Y-8065000D01*
X15294000Y-8116250D02*
X15261000Y-8140250D01*
X15261000Y-8092250D01*
X15294000Y-8116250D01*
G36*
X15294000Y-8116250D02*
G01*
X15261000Y-8140250D01*
X15261000Y-8092250D01*
X15294000Y-8116250D01*
G37*
%TO.C,Q2*%
X15739000Y-8000000D02*
X15739000Y-7935000D01*
X15739000Y-8000000D02*
X15739000Y-8065000D01*
X16051000Y-8000000D02*
X16051000Y-7935000D01*
X16051000Y-8000000D02*
X16051000Y-8065000D01*
X15744000Y-8116250D02*
X15711000Y-8140250D01*
X15711000Y-8092250D01*
X15744000Y-8116250D01*
G36*
X15744000Y-8116250D02*
G01*
X15711000Y-8140250D01*
X15711000Y-8092250D01*
X15744000Y-8116250D01*
G37*
%TO.C,C9*%
X15526500Y-12176125D02*
X15526500Y-12123875D01*
X15673500Y-12176125D02*
X15673500Y-12123875D01*
%TO.C,R15*%
X13826500Y-8022706D02*
X13826500Y-7977294D01*
X13973500Y-8022706D02*
X13973500Y-7977294D01*
%TO.C,R17*%
X16352706Y-8382750D02*
X16307294Y-8382750D01*
X16352706Y-8529750D02*
X16307294Y-8529750D01*
%TO.C,U2*%
X12473000Y-7397750D02*
X12473000Y-5473750D01*
X12473000Y-7397750D02*
X17527000Y-7397750D01*
X14265000Y-7435750D02*
X14465000Y-7435750D01*
X17527000Y-5473750D02*
X12473000Y-5473750D01*
X17527000Y-7397750D02*
X17527000Y-5473750D01*
%TO.C,R5*%
X14126500Y-12372706D02*
X14126500Y-12327294D01*
X14273500Y-12372706D02*
X14273500Y-12327294D01*
%TO.C,R12*%
X14576500Y-8022706D02*
X14576500Y-7977294D01*
X14723500Y-8022706D02*
X14723500Y-7977294D01*
%TO.C,R20*%
X15017706Y-8382750D02*
X14972294Y-8382750D01*
X15017706Y-8529750D02*
X14972294Y-8529750D01*
%TO.C,C11*%
X17226500Y-12123875D02*
X17226500Y-12176125D01*
X17373500Y-12123875D02*
X17373500Y-12176125D01*
%TO.C,R18*%
X15917706Y-8382750D02*
X15872294Y-8382750D01*
X15917706Y-8529750D02*
X15872294Y-8529750D01*
%TO.C,R9*%
X13326500Y-8022706D02*
X13326500Y-7977294D01*
X13473500Y-8022706D02*
X13473500Y-7977294D01*
%TO.C,R1*%
X14526500Y-11422706D02*
X14526500Y-11377294D01*
X14673500Y-11422706D02*
X14673500Y-11377294D01*
%TO.C,R7*%
X17222706Y-11526500D02*
X17177294Y-11526500D01*
X17222706Y-11673500D02*
X17177294Y-11673500D01*
%TO.C,U4*%
X16500000Y-10994000D02*
X16305000Y-10994000D01*
X16500000Y-10994000D02*
X16695000Y-10994000D01*
X16500000Y-11506000D02*
X16305000Y-11506000D01*
X16500000Y-11506000D02*
X16695000Y-11506000D01*
X16794000Y-11529500D02*
X16746000Y-11529500D01*
X16770000Y-11496500D01*
X16794000Y-11529500D01*
G36*
X16794000Y-11529500D02*
G01*
X16746000Y-11529500D01*
X16770000Y-11496500D01*
X16794000Y-11529500D01*
G37*
%TO.C,C7*%
X13726500Y-10373875D02*
X13726500Y-10426125D01*
X13873500Y-10373875D02*
X13873500Y-10426125D01*
%TO.C,Q1*%
X16179000Y-8000000D02*
X16179000Y-7935000D01*
X16179000Y-8000000D02*
X16179000Y-8065000D01*
X16491000Y-8000000D02*
X16491000Y-7935000D01*
X16491000Y-8000000D02*
X16491000Y-8065000D01*
X16184000Y-8116250D02*
X16151000Y-8140250D01*
X16151000Y-8092250D01*
X16184000Y-8116250D01*
G36*
X16184000Y-8116250D02*
G01*
X16151000Y-8140250D01*
X16151000Y-8092250D01*
X16184000Y-8116250D01*
G37*
%TO.C,J3*%
X17630000Y-11630000D02*
X17630000Y-11710000D01*
X17922000Y-10880000D02*
X18100000Y-10880000D01*
X17922000Y-11820000D02*
X18100000Y-11820000D01*
%TO.C,U3*%
X16059000Y-11959000D02*
X16059000Y-12085000D01*
X16059000Y-12641000D02*
X16059000Y-12515000D01*
X16435000Y-11959000D02*
X16059000Y-11959000D01*
X16435000Y-12641000D02*
X16059000Y-12641000D01*
X16587000Y-12664000D02*
X16539000Y-12664000D01*
X16563000Y-12631000D01*
X16587000Y-12664000D01*
G36*
X16587000Y-12664000D02*
G01*
X16539000Y-12664000D01*
X16563000Y-12631000D01*
X16587000Y-12664000D01*
G37*
%TO.C,R14*%
X14076500Y-8022706D02*
X14076500Y-7977294D01*
X14223500Y-8022706D02*
X14223500Y-7977294D01*
%TO.C,R13*%
X14326500Y-8022706D02*
X14326500Y-7977294D01*
X14473500Y-8022706D02*
X14473500Y-7977294D01*
%TO.C,R8*%
X17222706Y-10976500D02*
X17177294Y-10976500D01*
X17222706Y-11123500D02*
X17177294Y-11123500D01*
%TO.C,C1*%
X13826125Y-11176500D02*
X13773875Y-11176500D01*
X13826125Y-11323500D02*
X13773875Y-11323500D01*
%TO.C,J2*%
X12894000Y-11549000D02*
X12894000Y-12146000D01*
X12894000Y-12146000D02*
X13656000Y-12146000D01*
X12895000Y-11920000D02*
X12970000Y-11920000D01*
X12895000Y-12070000D02*
X12895000Y-12145000D01*
X12895000Y-12145000D02*
X13075000Y-12145000D01*
X12970000Y-11625000D02*
X13275000Y-11625000D01*
X12970000Y-11920000D02*
X12970000Y-11625000D01*
X13075000Y-12070000D02*
X12895000Y-12070000D01*
X13075000Y-12145000D02*
X13075000Y-12070000D01*
X13225000Y-12070000D02*
X13225000Y-12145000D01*
X13225000Y-12145000D02*
X13325000Y-12145000D01*
X13325000Y-12070000D02*
X13225000Y-12070000D01*
X13325000Y-12145000D02*
X13325000Y-12070000D01*
X13475000Y-12070000D02*
X13475000Y-12145000D01*
X13475000Y-12145000D02*
X13655000Y-12145000D01*
X13560000Y-12175000D02*
X13685000Y-12175000D01*
X13580000Y-11625000D02*
X13275000Y-11625000D01*
X13580000Y-11920000D02*
X13580000Y-11625000D01*
X13655000Y-11920000D02*
X13580000Y-11920000D01*
X13655000Y-12070000D02*
X13475000Y-12070000D01*
X13655000Y-12145000D02*
X13655000Y-12070000D01*
X13656000Y-11549000D02*
X12894000Y-11549000D01*
X13656000Y-12146000D02*
X13656000Y-11549000D01*
X13685000Y-12175000D02*
X13685000Y-12050000D01*
%TO.C,C3*%
X14826500Y-11373875D02*
X14826500Y-11426125D01*
X14973500Y-11373875D02*
X14973500Y-11426125D01*
%TO.C,R4*%
X13826500Y-12372706D02*
X13826500Y-12327294D01*
X13973500Y-12372706D02*
X13973500Y-12327294D01*
%TO.C,R16*%
X13576500Y-8022706D02*
X13576500Y-7977294D01*
X13723500Y-8022706D02*
X13723500Y-7977294D01*
%TO.C,R10*%
X16926500Y-8022706D02*
X16926500Y-7977294D01*
X17073500Y-8022706D02*
X17073500Y-7977294D01*
%TO.C,R3*%
X15926500Y-9872706D02*
X15926500Y-9827294D01*
X16073500Y-9872706D02*
X16073500Y-9827294D01*
%TO.C,U1*%
X14639000Y-10089000D02*
X14639000Y-10134000D01*
X14639000Y-10811000D02*
X14639000Y-10766000D01*
X14684000Y-10089000D02*
X14639000Y-10089000D01*
X14684000Y-10811000D02*
X14639000Y-10811000D01*
X15316000Y-10089000D02*
X15361000Y-10089000D01*
X15316000Y-10811000D02*
X15361000Y-10811000D01*
X15361000Y-10089000D02*
X15361000Y-10134000D01*
X15361000Y-10811000D02*
X15361000Y-10766000D01*
X14580000Y-10134000D02*
X14546000Y-10087000D01*
X14614000Y-10087000D01*
X14580000Y-10134000D01*
G36*
X14580000Y-10134000D02*
G01*
X14546000Y-10087000D01*
X14614000Y-10087000D01*
X14580000Y-10134000D01*
G37*
%TO.C,R2*%
X14226500Y-11422706D02*
X14226500Y-11377294D01*
X14373500Y-11422706D02*
X14373500Y-11377294D01*
%TO.C,R11*%
X16626500Y-8022706D02*
X16626500Y-7977294D01*
X16773500Y-8022706D02*
X16773500Y-7977294D01*
%TO.C,C8*%
X15926125Y-11326500D02*
X15873875Y-11326500D01*
X15926125Y-11473500D02*
X15873875Y-11473500D01*
%TO.C,R19*%
X15467706Y-8382750D02*
X15422294Y-8382750D01*
X15467706Y-8529750D02*
X15422294Y-8529750D01*
%TO.C,U5*%
X13939000Y-11850000D02*
X13939000Y-11785000D01*
X13939000Y-11850000D02*
X13939000Y-11915000D01*
X14251000Y-11850000D02*
X14251000Y-11785000D01*
X14251000Y-11850000D02*
X14251000Y-11915000D01*
X13944000Y-11966250D02*
X13911000Y-11990250D01*
X13911000Y-11942250D01*
X13944000Y-11966250D01*
G36*
X13944000Y-11966250D02*
G01*
X13911000Y-11990250D01*
X13911000Y-11942250D01*
X13944000Y-11966250D01*
G37*
%TO.C,Q4*%
X14844000Y-8000000D02*
X14844000Y-7935000D01*
X14844000Y-8000000D02*
X14844000Y-8065000D01*
X15156000Y-8000000D02*
X15156000Y-7935000D01*
X15156000Y-8000000D02*
X15156000Y-8065000D01*
X14849000Y-8116250D02*
X14816000Y-8140250D01*
X14816000Y-8092250D01*
X14849000Y-8116250D01*
G36*
X14849000Y-8116250D02*
G01*
X14816000Y-8140250D01*
X14816000Y-8092250D01*
X14849000Y-8116250D01*
G37*
%TO.C,C2*%
X13276500Y-11123875D02*
X13276500Y-11176125D01*
X13423500Y-11123875D02*
X13423500Y-11176125D01*
%TO.C,C5*%
X14026500Y-9926125D02*
X14026500Y-9873875D01*
X14173500Y-9926125D02*
X14173500Y-9873875D01*
%TO.C,Y1*%
X13610000Y-10720000D02*
X13610000Y-11080000D01*
X13610000Y-11080000D02*
X14185000Y-11080000D01*
X14185000Y-10720000D02*
X13610000Y-10720000D01*
%TD*%
M02*
