M48
; DRILL file {KiCad 8.0.3} date 2024-07-18T14:00:01+0800
; FORMAT={-:-/ absolute / inch / decimal}
; #@! TF.CreationDate,2024-07-18T14:00:01+08:00
; #@! TF.GenerationSoftware,Kicad,Pcbnew,8.0.3
; #@! TF.FileFunction,Plated,1,2,PTH
FMAT,2
INCH
; #@! TA.AperFunction,Plated,PTH,ViaDrill
T1C0.0118
; #@! TA.AperFunction,Plated,PTH,ComponentDrill
T2C0.0236
; #@! TA.AperFunction,Plated,PTH,ComponentDrill
T3C0.0394
%
G90
G05
T1
X4.626Y-2.0472
X4.626Y-2.1063
X4.626Y-2.1654
X4.626Y-4.9409
X4.626Y-5.0
X4.685Y-2.0472
X4.685Y-2.1063
X4.685Y-2.1654
X4.685Y-4.9409
X4.685Y-5.0
X4.7441Y-4.9409
X4.7441Y-5.0
X5.1575Y-4.0551
X5.2559Y-4.4882
X5.315Y-3.3661
X5.3346Y-4.4291
X5.374Y-3.0118
X5.374Y-4.1339
X5.4331Y-3.3661
X5.4528Y-4.5669
X5.4724Y-4.9606
X5.4921Y-3.7795
X5.4921Y-4.0945
X5.5315Y-3.3661
X5.5512Y-4.5276
X5.5512Y-4.7638
X5.5709Y-2.9528
X5.5906Y-4.3898
X5.6299Y-3.3661
X5.6594Y-4.0846
X5.6693Y-3.7795
X5.6693Y-4.626
X5.689Y-4.2913
X5.7244Y-4.3307
X5.7283Y-3.3661
X5.7283Y-4.8819
X5.8071Y-3.3661
X5.8465Y-4.0945
X5.8465Y-4.1535
X5.8465Y-4.2126
X5.8661Y-3.4449
X5.8661Y-3.563
X5.8661Y-4.5866
X5.8661Y-4.7441
X5.8661Y-4.8819
X5.9646Y-3.248
X5.9646Y-4.2126
X6.0039Y-3.4449
X6.0039Y-3.563
X6.0039Y-4.0748
X6.0039Y-4.1535
X6.0236Y-4.8819
X6.122Y-3.248
X6.122Y-3.7795
X6.1417Y-4.4882
X6.1417Y-4.6654
X6.1811Y-3.4449
X6.2598Y-2.5381
X6.2992Y-3.248
X6.2992Y-3.6024
X6.2992Y-3.7795
X6.3976Y-4.9213
X6.4173Y-2.9528
X6.4764Y-3.248
X6.5354Y-5.0197
X6.5748Y-3.0118
X6.5748Y-3.2283
X6.6142Y-4.7441
X6.6732Y-4.3504
X6.6732Y-4.5669
X6.6732Y-4.9016
X6.811Y-4.9016
X6.8898Y-4.4488
X6.8898Y-4.5079
X7.0472Y-4.9213
X7.0472Y-4.9803
X7.0866Y-3.878
X7.0866Y-3.9567
X7.0866Y-4.0354
X7.1063Y-4.9213
X7.1063Y-4.9803
X7.126Y-2.0472
X7.126Y-2.1063
X7.126Y-2.1654
X7.1654Y-3.878
X7.1654Y-3.9567
X7.1654Y-4.0354
X7.1654Y-4.9213
X7.1654Y-4.9803
X7.185Y-2.0472
X7.185Y-2.1063
X7.185Y-2.1654
T3
X5.1772Y-4.685
X5.2756Y-4.685
X5.6555Y-2.2338
X5.6555Y-2.8338
X5.7555Y-2.2338
X5.7555Y-2.8338
X5.8555Y-2.2338
X5.8555Y-2.8338
X5.9555Y-2.2338
X5.9555Y-2.8338
X6.0555Y-2.2338
X6.0555Y-2.8338
X6.1555Y-2.2338
X6.1555Y-2.8338
X6.7717Y-3.826
X6.7717Y-3.926
X6.7717Y-4.026
X6.7717Y-4.126
T2
G00X6.9811Y-4.2984
M15
G01X7.0244Y-4.2984
M16
G05
G00X6.9811Y-4.6386
M15
G01X7.0244Y-4.6386
M16
G05
G00X7.1555Y-4.2984
M15
G01X7.1791Y-4.2984
M16
G05
G00X7.1555Y-4.6386
M15
G01X7.1791Y-4.6386
M16
G05
M30
